<mxfile host="app.diagrams.net" modified="2023-02-26T05:29:02.848Z" agent="5.0 (Windows NT 10.0; Win64; x64) AppleWebKit/537.36 (KHTML, like Gecko) Chrome/110.0.0.0 Safari/537.36" version="20.6.2" etag="fIFH6wgxfVvLB87DCszf" type="github">
  <diagram id="KRKyHnvJllpocSslQ06i" name="第 1 页">
    <mxGraphModel dx="1808" dy="1695" grid="1" gridSize="10" guides="1" tooltips="1" connect="1" arrows="1" fold="1" page="1" pageScale="1" pageWidth="827" pageHeight="1169" math="0" shadow="0">
      <root>
        <mxCell id="0" />
        <mxCell id="1" parent="0" />
        <mxCell id="iUx2Ds71KsNqZJShA2Rj-5" style="edgeStyle=orthogonalEdgeStyle;rounded=0;orthogonalLoop=1;jettySize=auto;html=1;exitX=0.5;exitY=1;exitDx=0;exitDy=0;entryX=0.5;entryY=0;entryDx=0;entryDy=0;" edge="1" parent="1" source="iUx2Ds71KsNqZJShA2Rj-2" target="iUx2Ds71KsNqZJShA2Rj-3">
          <mxGeometry relative="1" as="geometry" />
        </mxCell>
        <mxCell id="iUx2Ds71KsNqZJShA2Rj-2" value="用户输入问题" style="rounded=0;whiteSpace=wrap;html=1;" vertex="1" parent="1">
          <mxGeometry x="-520" y="-220" width="310" height="70" as="geometry" />
        </mxCell>
        <mxCell id="iUx2Ds71KsNqZJShA2Rj-6" style="edgeStyle=orthogonalEdgeStyle;rounded=0;orthogonalLoop=1;jettySize=auto;html=1;exitX=1;exitY=0.5;exitDx=0;exitDy=0;" edge="1" parent="1" source="iUx2Ds71KsNqZJShA2Rj-3" target="iUx2Ds71KsNqZJShA2Rj-4">
          <mxGeometry relative="1" as="geometry" />
        </mxCell>
        <mxCell id="iUx2Ds71KsNqZJShA2Rj-9" style="edgeStyle=orthogonalEdgeStyle;rounded=0;orthogonalLoop=1;jettySize=auto;html=1;exitX=0.5;exitY=1;exitDx=0;exitDy=0;entryX=0.5;entryY=0;entryDx=0;entryDy=0;" edge="1" parent="1" source="iUx2Ds71KsNqZJShA2Rj-3" target="iUx2Ds71KsNqZJShA2Rj-8">
          <mxGeometry relative="1" as="geometry" />
        </mxCell>
        <mxCell id="iUx2Ds71KsNqZJShA2Rj-3" value="从redis中检查用户对话状态" style="rounded=0;whiteSpace=wrap;html=1;" vertex="1" parent="1">
          <mxGeometry x="-520" width="310" height="70" as="geometry" />
        </mxCell>
        <mxCell id="iUx2Ds71KsNqZJShA2Rj-4" value="" style="shape=image;verticalLabelPosition=bottom;labelBackgroundColor=default;verticalAlign=top;aspect=fixed;imageAspect=0;image=data:image/png,iVBORw0KGgoAAAANSUhEUgAAAk8AAAG5CAYAAACX5ND3AAAgAElEQVR4nOzdd3gUVdvA4d9sKqSQRioEElpCCAEB6aFJDV0QQVTEUFRU7MD7qtgpiqKgIliRojSRJh1CV3oJSYAUSA+QhZCEJLs73x+bThKyEODzzXNfF5fuzDPnnJ2dmX1yzplZRavVqtyF2NhYgoKCblmem7idRPtu1LfVFFuqkn4ghK9OhfDi+BdwJIF9C+sQFZTEMw+7G0MMkez41o+Ipmd5vqsfAPrEH1m16SviUs+Rq6lDbd/n6NXvJerbFJR7lu1fNWXv1ZJtsGixjWmDehS+vn05QgghhBAVM79XBVt69qD+LUsVHJuPxHvzL0Rde4G2tcrYUNME/yYtCDu3C21XPxwAM4e2tO4VTD9XDyxyIjm8NoTftjbl1cGPYAGAP91fyKPbtUV8P3cTLd9YxUM1AKXk27t9OUIIIYQQFdPcPuROGciI/oKVP7Rj7tz2/LJmHrE3AJtG1K55hNTL5W9pV6seZCSRWbCgZlN86zbA1qomVvYtadO8G9mJx9EW20bRmKNRNICCopij0ZijUUoVXIlyhBBCCCEqcs96nshYwqrlq3B/9Ceedr3CoWXDOJM2ifq2tbCukc6VrJxyN1VQQDVQOJ548ywn933JsfNHSM9IITfvCtgGYjC1TVVVjhBCCCGqrXuWPGVErCCu3iRGNvHDimTsrcA4JckSc3PI090sd9tr16LBvhe2AFzm5B892HBjHAP7LcHLwQEiX+KLA6a2qKrKEUIIIUR1du+Sp+txWNfyxOqWNSqooNGUU7X+JGfCT+LctBMOAJzkwvkrNB72DgF1zQDIs7Iue1tFg4IBtcwp8CaUI4QQQghRjns258lMY0VeXnb+0JsxYTLKQ6c3x9KyWOKi6jHoMriWvJWwZcM5qHuBXu0C81fWxclJR+K5bWhzMslM+YO/9m1AkxmHNrdUpbaNca15mPMR58jOvcH1pNNo8zC9HCGEEEKIctyz5MnRsw2a2K3E5urJSVhKTIYLBj3AdW5me2Nna1YYe/GvOrz/kQffLP2AeKepjBn/JU0KHx/QiA7Df8UzfgLzZ9Xju3Xb8RiwjRDfk5yLLjX0ZxZMr1H/RT3QjTmzfFm0djbn0/WmlyOEEEIIUQ7lXj3nCf05/vl9IFvOX8LM+VVG9DJn36VhPB64jUXfHKHTWz/TzPJuahZCCCGEuP/u3d12Zo1oM/IsD+VmgWVNzEji+j+d+WRvFh5dN+EniZMQQggh/oXuXfKUz8yyZv7/eRA0Mhz/XA2Wlve8WiGEEEKIe+I+ZzGWWEqPkxBCCCH+xe7hE8aFEEIIIf73SPIkhBBCCGECSZ6EEEIIIUwgyZMQQgghhAkkeRJCCCGEMIEkT0IIIYQQJvj3JE8GHbm6qilKG36GnxdHESO/yiJElZPzS/xP0GWRfi37QbfiVoYUdn05iSHBLRn5Y9yDbk219S9InqL5b9NZONeczbT9ZUecmvEVivJe0T+rVWwtrzh9NO/3XMGYp5Yxcn7qvWr0bZnU5n+ptFVjqOP7PJsz7mDjuG/ooigo+f8e/+16lbdP3AP34fyqDufOv9H9PN/vqq5KOvzhQ7hP2VV+wAO6Rt3c9A79F+p4/PMVzB3udV/qFLf6FyRPuaSczeJqTvk/wefg34jQ0ABC+ztgyW1+qk9jhaOTAmhwcbSo2qaawKQ2/7+RwDc9jBcKs5rO1Anowog3FnAgJa/MaGuXBgQF1sf5Th6MWm8iO/LyyMuL5ovgu2v1fZVxhiVThvGwrxM1bV1o2G4ory3YR0rpXtPU1UxsOYHV2rusr6rKqSr34fz6d547RlGLV9Kvyzz8XjxD7r2sqLLHYRW6n+f7XdVVVR7QNSpbe4XMwB4MbNUQV1v5tY4H5V+QPN1e3UF9WLhwGAvfaIDt7YIVL97aMYE9+yby6zOO96N5ZTKpzf/PhCyMJ+daPKc3zWFw3k/06fYq26/eGmfX5W02rH2T1lZ3UouCmbk55uaaqj1IDXlkaxOJPPAHX686QdV+l2Sw4fWevHKyNTO3niMl4RQbZg0kd/13bI03lAzNu8y54ylk3+13f1WVU1Xuw/n1bz530iNj2RR2hch0/T1M+0w4DqvQ/Tzf766uqnKPrlG34ejljeOlRJLvY53iVvfwM49gnDIdRfmFWb9vYUT7T3F2mEWHZw9wIrN0zMe8HmZcsum591GU9/B4/cItJd449Q+hbWdhV2s2HZ89wMnMW0IqYOCPZ6ajKO9h5bqAzh2/xnH8mTIjr508yrQR39LI7SOc639J15GbWHIs0+SL3d2Xk8PfC/9k5CPzaOT5EXYus2ne43dmbkkv+aWfkcSvU36lfaNPsLObQaPWCxn99hEOp+pNi6ksjRnmFjVw8G7FyM9+4j/285j2Q0TR+lMzCCzszvZgyr5bi8g7+SNj+zyEr6sdDp7+dAv9koNXTG8KZHJ6yauENPfCwcGToP6vsCy81IGRGcGyt4bwkHctLMwsqenoRdPgp5m1+B8u5Yccnu6H1XObirbJ+YPRysN8HlW8ID2JO2bxRAdfnGu54NdjIgsOF+/yieLg9iS6jJ5ItwbO2NXyoEnwGL5a9zOj6xecameZ0VJBqTOBHaxltJNxPzlN3m7i/qlcOZV6X/pEts0cQ+dGLtg51KF550d5fdEhUk36nr39+bVj8scoyte8+OEq2tebgf+o7Xz12g80cZtBy2dPEA9U7rpRSfoMds9dRc/AWTjU+oQmwcv4ZOPVwh6fyrXn9uUUtXkx8zfvJbTLZzjVmkGL4WEcLhjJiQrjYWU67T7KfxNL1mCtvIei/Myvxf/wqJLztDLHIdz+eIbor7qgKArWEzaQFbWCV/o2xbWmQv1pB4qC7uf5Xom6SsYU/OvLjyl30B5dHBveHkSAix3OTbrz8vLIO+gxvP1+NomXN42iEyR5esDuQ8Icw1tjT5LmWgsXfRYHfthC6Pw7+djzWPBWGNHujrjrM9n/wxbGfpVkQiKiUKdtM0JDA+gfWP7bzjm5k/4d/uST31Mx+HnT8yFLLq49w95kUExobdWUY4lFykX2X7MmqFsD+gZoOL8jnCkDf+O7wtwyl63TFvPkzAsc1TvRf3AdfPTprJh1iB3Jqgkxd8isCX0Ht+Dvv3aRULAs8E2O5+WRl7eHV93L3syiblvGfriCQ9EpxB9ZyvBrMxj63jZyTKxeu/lN+r1+jt7fHiI29m++Cj7LpH5T2HGjICKH3e+EMOlUe+btu4Q2PZqNUwYzbN4eIv4IxceEunJPfsaQZw7Q7tNdRMdHsvoFC74eOJl16QURjWjbzYMt899n5YnUci6y/rx5OI+8uG/ozkB+ScsjLy+PtDk9TNw/lSunMrRr3mDwD9a8+tc5UhJO8Ofcp3DP1KIx6epQufML0vh6YRrWtnlELNvLh2E6bPQ3Of7DAdbGFI+72+tGLvvf+ZFHJp/iQK4jfULcsTodybSQH3lze/FJwLdrT2XLAYhm0sD9nKllj2veTU6s3MmUpfkHh50LfUObMbCFmfF1A0/GhgYQ+nxTWjgVtblqztPKHIeVOZ7Bd9IO8v56ATV8GRMmLsVn6kZWvtGM2g61ioLu4/lembqKYvLIy0vlz9B6eI0OJcTN9PbkLvmSPxq+x87oaHa85c6aJ57jx4umNbky+7nS1GwuHT5OrNn97e0St7oP+1/D0G8nsGPtOFa/7QLA4d/DibyDch79djzb14aybrorAEeWnOF0pbdXaD1xGAsXDuONXuXNxchi9Yd72Zup4DxqEH/vepLlqycSHv8cn/W1MaGtVVWOQsv/vEDcP6GsXPI4v+96ivfbAjkp7D1acJpncyEiCwCf3u2Z8e0TbDk2mahTo5jc3NyEmDvn7lkPLiVRND1Yk9+drZSfKDo2pVPrBtS2rYmtR0ueHtGNpEPHMe26pGXjokXYPfceL3aog4NDHYJffZtnDAv5ZWtB9hTH33ui6T56PB3q2mPj4EPf4S05+vJctpv0J2Quu777FMMLH/FiB29q2TnTdOi7TG61hOXbC2at2tP/863Mb3eWKR29qNtyEJNmLuNIasnBQY2ZOeZmGkAx/r+5OWalz8RK7J9KlVMJWdp0MhVzbOzsqGnjTP2HBvH6y71xMamUypxfRiPnjOXHF9wAd6avfIZpvQEyuVxi6PcurxuXTzFz1lV0mnrMDxvH8qXPsHdhE6zIYP68MxTvZKiwPSaUAxr6zxvHnj+f5sMhxiVno/O/IT2a8t7CYUwLsTa+bteWrxcOY+H8NjQr3L6qztPKHIeVOZ4BxQxzjQJ7N8ILi3gpuD51mvagX2DtEu/7/pzvlayrMMacqxun8sLmbnw751Fc76A9lo9/wvynW+BqX5ugsdOY0Gwnv28w5Q63Su7nytj1Fl4ODni/cJqnF71KW9O2FlXsPiRPZvh42wHQyC8/9T9/ncQ7KKe+tx0KCk2auWOOCueukVilQ/hJHNpu7B4P7tMQ5/yz09rJhpoPpBwDCWF7eXHQ1zR0+xALzXzeOGQsLCu7YJK2PSGhTfA2V4n8dg31PT+j66itbEwo/pdqZWLunKIooDdg0kdx/SyrZzzHoK4PE9CgHv4T10KuzsQ5SDFEnswlsEnDogupeQMaN83hzLmCy6A3bYMbsH/dGi5kqmDQ8s+GbcTW9cTdpMmm8Zw5msaZWb3w9vbO//cQb+3UkZB8uSjMNoDRn20iIiGS1dO6otk6hc7Bz7AixsTh0SrZP5XjOWIGC9rtYXijJnR74nXmrDhMatn3AFQJCzPjUIrxSw4UBUBFLXE43uV141QCu3WA4SJj3I135dUaFkUOCrpjqURXtj0mlANmNGniiDmW2NgbL60GgynnWBWep7c9Dit5PBdwGsFTA5wB8B3xBe/1rX1rTEXu4/FcKGUVk5/bSt9vP6V/6eZWtj1WlhRdJnxp1BQuXDLl28vE/VyR9lP5++gBVo+14Mt3f+W8aVuLKnZfp+obdPknrl69q8mShoIvar2KSdem25eMPv/sMTMzZZDu3pSjO7mLAY+EcUyn4N7Km+H9rEnYHknYpeJlKtQd8TgngiL5ffkZ1q2JYuOyf9i97AwHV07k50ftKxlz5xIvRUO9XpTXi36ry6x6oQcTUsbx06dLaFHXAWXLS9SZY2rNKqohP3krpWiZNcEfrmR8p3Y0dZuMrVkOZg2GMmfJa7QytS4VOr69maWjSvwNi4WN0y3R5rV86Tj8FTo+Ogy/Xt688u1Ehs/sWMm6qmr/VJJdc8b/dIxRHxxjz/a/WDKzF1/+Npedvz+Jz/+DsYE7vW4YY+3o/aw3dYsfIrbuOACV/bv/duVUnao/T8s/Dk07nnFwxvGO72y7z8czgJrI0hcn8ffgHzncz7mK2qNiMIBOb8qfiSbu54pYOeDV4CGGPDeSlt9GEQc0NK0EUYXuQ/KkkpGRC5hx8liScVEr1/wPXcHMHNDpyclRQX+NuLjyLo8GrmfkAuYcP5yIAQUecqGhWbEQOytcgKu6HDIyAVNGyABwp0UnBTbC/t2xXB/VFHtUtHHXUOo5UOv2BZheTgVtTtx/gWM6Beq1Zs2hENqRxmddIwm7BDpd0QmcGxNPtGMjxk/3Y/zbWr7p+wXPb81mxY6kwgtuZWLuSO5J/lh5khaPdaLyTxw5ya4/rjD893fo39r4AebYWZcTq1BGbpSvPo2aafgj6gIqLYy9T7oLRIXXIPB578Iow/EV/GD1CafTnsUlzxJ7e2vMSpWk0Wgo1fVRSl38Wzgx42wctrUDqFGp9wlo3Knf0BbtjRuoFJvvpmjQYMBQ5nXYhP1TYTmVeV+FkdjWbUXfMa3o+7AFLQPm82f0k7z8wK7OFV038lV0vgd40tn8KBt00HzMQGZ1sgRUbqRmonG1pSYU3ixQoUqUYwo7e2sgE27kkgWUvlnsnp2ntxyHd3g835GqOt8rS+Xi4km8dGI4vx/qU0aCa0p7ijFEEn4Smvesb0Kb78F+zrzBtToulE4Jxf11H/6u1PHd2O8Y/OhChs+4BpgxaGwAxq82R3xbABj46cWF9Ov4HS9vKu9Cr2fh2AUMevQ7hn54FdDQb3wQjYqHNPKmqztgOM+rfRYzvO9ivgkvKO8mOz9dybhxK5m9JX9MYs9Bxo1byeQlBbdh2DF8ahsCzVUSv1tFmx5LGNF/Hv6+3/HauhtUngnlVNDm2o1ccUeFuBOMH/grQzr+yLS9+U1fG0kSwNVIXu37A60af07HAUsYOXQpH+0EMKdv+/y+oMrEmMKgR5ebQWL4Vj4fPZwZN19g9rjAovWqAb1Oh05n7ClQVR06na5YL2Fd6gfoOLhtG/E3MrkS8QdT52zAKjmO+KzSlTnh7mXFmUOHSLlxjcSoeK4VW9fvmTGkfTOdrw8moNXGEzbnA36qMZFnehR9k+YkJ5KYnc41nTV2NS3KPOi96jVCdzaKGD2gS2HbuzP4o0SEJd1DX8Hrp6m8seI0aZnXSQ7fzBcfryCmIHFJ+I1RHYcz68/DnEu6xo0rcRxaPJl3ljgTOrRDyTkaLo0J8DzMlk3n0GbdIPn0aS4VzlY1Yf9UWE5l3lcmh794iWm/7uN8SgaZ2lh2r91JjHMADd0wQWXOL1NUdN3IV9H57hrIm684ouE6s/vOo8fjyxje6yt8vRbw5mYTbturqnLy+XbwwQcV1u0gZPhyHusxjzHL82/Jq6rztFLHYSWOZwBVj86gAioGnQ59WZfn+3a+V6Yu0Mf8wHOTz/Dk1+8RbGtcr9MVfzRE5duTu3Y+n+2K4Yo2gX2fv8O3SUN5akDpPxMranMl97MJ1OREYr3cMHHgVFSx+5A8mTNoZH1ywrVk1HZm2Mcj+O7Jgr8FXBk7pzODAq3QJF8j3b89q2aXzuoLeDL5FTfSjqeT4eHK4zNH8uPYUs+RsW3M9KWdeezhGmQcv8TfiTkkXCq4wOmI2XWaRYvOsP5U/lEbGc+iRWf47VhRQmPfqQ/bdvVkUn9Hbh6PYdtZCBjVgp71FJOGDCpdTgVtrtGjDxvm+9Hay8D5A8lcDmjPznNjmPu0G81buuAG4OTDa3O7Mq69FfH7olmz4zr2HRrzn1/H8MPo/D6uysSYYMO4OljYeNBy6Af83WAqYWFf8kjxP4P2T6OOhQUWFp2Zk5zMrM4WWFhY8FjBnUc0YtLiX2l3YAIB7vXo9OJ2Wny1je/7nmRzWOnf9LBl4EfL6BX+Ki296tHu8dnsKzax2HngXDZ96M3aZ1tTr15bXt7XnAXrPqZTsV6IGj0n84X/JgZ7WGFhYY6dZyDdn55FWLF78d2GTedLr2X0b9OZR/q/wr5OrzGxQcmWWLWawrp1o9B+NYQAT186jfmKC7bOWBRMlPDsw9TJLYj6ejw9m3ng6tue0J+yeHTZdmb0sCtZmGUw7//5X9S53ajn5kuX52azK7ZgPooJ+6fCcirzvqyp06YpWSsn84i/G57N+jH1UCNmbZpNv1JNrljlzq/Kq+i6ka/C892K4E/GsnNeC0Ia6Tm+/jzboxTav9iRJ1tUopehUFWVY2TdqTsrFwbRMwAitsRy9JoNtjczyIKqO08reRze9ngGoud1x6LPfHKjP6athQWDfizjjsf7eL7fvi6IWPENG9Oj+OIRJywsLPL/DWNZ4dMBKt+eZo/1h0WjeLhhIKNW2DNlwwIev+WPiorbXJn9bIqrKYlke7iaeEOHqGqKVqu9q1lDsbGxBAUFlbEmgnHKchZhyWu7p/Hpv+kp0eJ/hyGDpNhMbOu7Y6cB0HMzLYIlL/fmTcfvSZrfmwf5kGJRmlw3hKhI9p/P4vCBO7s2v0d7J3nC+IPy/2A6qBD30lFmtuvC1LXnuZqVS+7NLK5rL3P5Wja1XZwlcRJC/KvU6DOFHzscZLSvA/2+i33Qzam27mHaqmDlaktQg9o0qNpbUoSoPE1n3lj6NG9+MIBmY2K4iiNePs3oOux71r3e+kG3TtxCrhtCVMiyEaPmbmfU5zlk5UnP04NyD4fthBBCCCH+98iwnRBCCCGECSR5EkIIIYQwgSRPQgghhBAmkORJCCGEEMIEkjwJIYQQQphAkichhBBCCBNI8lRAl8LpwzFkVPTghsrECCGEEOJ/mjxhC4A8EnavZuv17kws97mJZcfoog+y+5oDXuX+XLbKtYhjZLV5jG5e5e/u7Og9hGkb0/0hNyzu8F0IIYQQ4t6T5AnIjd/FmlOeDJjYhPJyoPJi0mLDyW0wFr96+Qvi/mJ5Yjseb1/weOQkth90wa+CxAmgho83us/DONd8OE3LDFU5v24mS47mlFramKFTR9LcEiCezZ8t4uANBTQW1LB3oa7fw3Tv1gI3+R0SIYQQokpI8pR7ke1rwvEZOJGG5f1IerkxN0lKqoFXp6Il2kQtDp7FflciM5EkWy+63FJoOid3ngEPl/zfV9Pj2qE+6vkIIgD91UgilHYMae+WP7aq0KD/m7wdonJu3SxWqUN5a2AjFBSUgsHXG0kkZnjwyEvjaG+Xx43LUexe8wc/X7dg0vAAat7pPhJCCCFEoWqePOUSs/UPzjUYyERfK9Nj1CQStGa4RBsTHoCEcxnobSKIKFiQGoHqGXLrjtanEHVBoUc3PxzLqDVu0y5q+NcuMSlNUTQoymVSEnPwbOWJmabklDVDUhJJNbzo6qRBgxX2HoH07hLJ8ZWnickLIEDGA4UQQoi7Vq2Tp5sXtrA2ujFDJ/hQ3qhWhTFX4kn3aUN/Px8UABK4eMyfDs2LEqKU5IO4eJXxC6epiaR7+JSZOIGWhAR76vQoYz5/bjKJabZ4etjdsupKUiK5nm1wL7bM0qEWNuolsm6CTKYSQggh7l71TZ6yz/PXn7E0Gz4e7/Iyp9vEZF2Mp2a9tvmJE3Ajkav2nsUSohwSE63w6nDrtpmJCehVJyIKu6iKUROI0nkSUla7UhNJUL1o6lZ6RS5Jiak4eXqUmJNluJFBpsYeO5ty3qMQQgghTFJNk6csIjetI6n5Y4yrU17mdLuYPGKjtZjXjy4aokuOIMPQrFhCdIWzuV70umXzbM5FQev+LfC7tQMJUrScauqFcxmrbiQlkuHqg+ctZaaSlKDgFeRacmliInr3lrjLQymEEEKIKlEtk6fMs5tYn9qCJwZ5lbsDbhuTF01kXmseae1HQf6TlHiMJm1b4leQv1zeywHnMpKgzLOE04zBZSVOAG7tGH5LzxKASlJiEpaeHW4t80YSiRluNPEo3to0Is9exq1ZI8oYOBRCCCHEHah+/RE3TrN+42UeHhKMu9mdx2SdjcDioeYU5T9ZJKTUwNOlKCY3MQFLL4+iYT3jUs7vOotXt+Z3cPfbFZISc/D0KF1mwWRxTzwKsySV6ye3c/B6Ezo95IoQQgghqkY1S54yOLFuMxnthtDRrbzMqRIx+gQOXapDcJNid98ZErhk8CwxPJaUkIWnZ8kUKTt6NyccutOx3MytDKqKwWDAkJtIQpoNHm42GAwG1GJPOjdOFnfH1ZBHVnoi4buW8f2GKzQb2p9A28pXJYQQQoiKVathO+2xdWzNas+Y9q7lZo23j9GTciIWz+CO2BdfnHKJdOcG2JLBpeMRxGdpOX/BmY69i0LyUo+yN6kxIR09TNrxmUd+5dMN0UULfvqAA2pN2j/7Br3rAuSRlJiKEr2B2R9swtrOBa+GgfQbP4wmzvJ0TCGEEKIqKVqt9q5+qS02NpagoKCqas89o2qP8OuikzQZ+zQPO5WdFlUmJvfyeS6q9WhYu+R9//q0GC5a1MXHwRzUTE5vWM2lhgPo4+eAAuRq44i9Xgtfb4fqlbEKIYQQ/2OqT/KUncL5NCsaejvcMl/IlBghhBBCVG/VphNEqeFGI++7jxFCCCFE9VbNJowLIYQQQtwdSZ6EEEIIIUwgyZMQQgghhAkkeRJCCCGEMIEkT0IIIYQQJpDkSQghhBDCBJI8CSGEEEKYQJKnu6ANP8PPi6OIufmgWyJE5ehy4a6eiiuEEEKSpzumj+b9nisY89QyRs5PfdCtEaJStr4MNi7QedaDbokQQvx7SfJ0pzRWODopgAYXR4vbht+NqMUr6ddlHn4vniH3HtZzdvbDKIpS6l8Xvom7g8JSVzOx5QRWa6u8mSLfFG9QlFv/tZxR8XbZV+C85PtCCHHHqs3Ps1Q5xYu3dkyg2zkzmrV3vKdVpUfGsiksE+rq7+mQi/9rB8h7RYXNk7AItWHPpZm0Q8HsTo6SvMucO55C56pqsCGP7OtpXDz7N9sTfRj/aFC1P3iDhkFoBhxfBYfTwb099A8Ad/8H3TIhhPjfVo16niIYp0xHUX5h1u9bGNH+U5wdZtHh2QOcyCyIiWOK93QU5T2Uehs4dDOV5ZMX4efyPorVCjbmARj44xljjJXrAjp3/BrH8WdK1JT6yy+YKdNRnFazPS9/4bGt+CnTUWouZfV1gBz+XvgnIx+ZRyPPj7BzmU3zHr8zc0s6uoKCosJ4WJlOu4/yG7hkDdbKeyjKz/x6tViF+gx2z11Fz8BZONT6hCbBy/hk41XTe6k0Zpibm2OuUQAFxdwcc3OzEj+SfHi6Hx0+28e+L8fTpaETTnXaMHrBSYqmfZ1lRksFpc4EdrCW0U7GHiynydtLVaYncccsnujgi3MtF/x6TGTB4VLdVJkRLHtrCA9518LCzJKajl40DX6aWYv/4ZIJ5UR/1QVFUbCesIGsqBW80rcprjUV6k87YNLuGZffs/N6mPH1pueMrz1eLxaUAb9OgfaNwM4OGrWG0W/D4eI9PXrYPRd6BoJDLWgSDJ9spMTnVdirVA8O3YTlk8HPBRQr8o9DGDkHFi6EQV7G141HGl9/MKhYVYnw4XDwcga/XrAqqrx3l8ned9vhWacbc47dy/5NIYT496tGyVOBGN4ae5I011q46LM48MMWQucn56+rSdAwH4JsVLgYx5fPLmfk3ERiMgzg70R9CwCFOhhjwDwAACAASURBVG2bERoaQP/Asnefa29/emuA9DgOhhuXxR6IIRIFqwH+dLcHsMQi5SL7r1kT1K0BfQM0nN8RzpSBv/HdhfyC7FzoG9qMgS3MjK8beDI2NIDQ55vSwqmgtlz2v/Mjj0w+xYFcR/qEuGN1OpJpIT/y5vbsqt99QPiscczJGc3io5c4OacZ21/6kHWF+Yo/bx7OIy/uG7ozkF/S8sjLyyNtTo8SZeSe/Iwhzxyg3ae7iI6PZPULFnw9cDLr0gsictj9TgiTTrVn3r5LaNOj2ThlMMPm7SHij1B8Kl0O+E7aQd5fL6CGL2PCxKX4TN3IyjeaUduhVpXvm63T4MmZcFQP/QeDjx5WzIIdyUUx+9+BRybDgVzoEwJWp2FaCLxZLL8MGgZBNsBF+PJZGDkXYjIAf/KPw0owwLxR8PZKuOIAzSxhzY7ygvO4Gn+RpKQYEq7pygsSQggBoNVq1bv5d/z4cfXf4awayrsqvK8OXXxdVVVVPT3zKxWmq7TarkYUxsWqb9V917jcfoH60b5kdUHIuyqPHVVvlCpx92ufGONCT5dac01d0Hu6CtPVnt+mq6qarS4dbnw9bEmxUgyGYv+fqs5ua6x35O83S5R28D+zjfU8cUItuUZV1bTD6kDzd1U0P6g/JefXvnKpasW7qvngf9TLpu4mVVXVjRNV3F9T95ax6p93m6jmjy1TrxUsuLFSHUEr9dOIUoHxC9TuDFJ/vVpWBTnq5hdqq61nnin+RtQf+puro1Zcz38dqc5qgzpsSXpRyJH31IZWY9X1OaaUk2/LJNUSR3X0SuMeubD8ZfWdjanl7YEyhaKqoKqv7Ta+3jjR+Nr9taKYbx4xLmsyUVVj8z/q2EhVLWxymqoONFdVNGqxz0tVrVBV88Fqic/rrbrGsrBX1Y/2qeqCEFXlMfWW4/CDZsa44C9LrTiqqk3y2zwr3Lho5RO3trlQXoaadvmGqjdprwghRPVTDaeNmOHjbQdAIz834Aqcv04i0KRUZNu3BzG1gxvK+umMN6kOe/oN9oLNCYTtv0jWWGv2blfBvD4De9rkxxhICNvHjDmn2HTwKnGpOnT5A2RZ2XmAVeWqOpXAbh3ARca4v8eYwhUKHEslGnA2qe23p3GqhX3BCysraqDHYDClhHjOHE3jzPJeeM8r6r27eVVH096XATvAm7bBDfhi3RouDBpDgxrX+GfDNmLrdsHd0pRyinEawVMDjHvDd8QXvGdKkyspJBS8d0Hkt1B/KXQJgRHj4NnG+QGnyP+8YIw7xT4v4Bhlfl5t34apHUBZj0nH4Y3zEAlQC9rkz4OqaVfBBua2uFT1wSKEEP+DqmHyVMSg0xv/R6+WORE70K92ifk+pqjTz59g4gnbdpFjJyzZchU0IU3pXdu4XndyFwMeCeOYTsG9lTfD+1mTsD2SsEum12hsux29n/WmbvHNbd1xuMP231sqqgod397M0lGuJdZY2BSMR1oT/OFKxndqR1O3ydia5WDWYChzlrxGK5PKKcbBGUfLWxdXpboj4EQQ/L4c1q2Bjctg9zI4uBJ+frSg1Ua9n6XU50WZn1egH3d0HBYmtGaVHZ9XUVUF5U4PeiGEqCaqYfKkkpGRC5hx8liScVErVxpWdTXe/gzttJWwvbEsXmTBeRT6DGpMwVd84v4LHNMpUK81aw6F0I40PusaSdgl0OlKduPY2VsDmXAjlyxK9UkFeNLZ/CgbdNB8zEBmdbIEVG6kZqJxtaVmVb+vylI0aDCU0yNVF/8WTsw4G4dt7QBqlFOE4fgKfrD6hNNpz+KSZ4m9vTVmd1BOVTEzB3SQkwPoIa6MRzjkxkC0I4yfDuPfhm/6wvNbYcWO/OQpADqbk/95waxOxu1upILGlSr9vOzqgCeQeBXCL0GwF8RfKi/6JgfeD6bvl9ZM37GDyc2r4aVBCCEqqRpOGNfx3djvGPzoQobPuAaYMWhsAN4ApLHs1V38lX8n2555qxj39mkSSmx/k52frmTcuJXM3pJ/29Oeg4wbt5LJS1KKxTnRd6hxWPD775MBDwb3KepXqN3IFXdUiDvB+IG/MqTjj0zbm1/c2kiSipXk28EHH1RYt4OQ4ct5rMc8xiy/blzpGsibrzii4Tqz+86jx+PLGN7rK3y9FvDm5kxMYtCj0+nQGVRARdXp0Onu8PEILo0J8DzMlk3n0GbdIPn0aS7lFKy0pHvoK3j9NJU3VpwmLfM6yeGb+eLjFcQUS7ZykhNJzE7nms4au5oWZRyslSsHVV/4ngw6Hfo7fHyCbwvjf396Efp1hJc3lQq4Cq/2hVaNoeMAGDkUPtppXNW3fX6MK7z5ivHEm90XejwOw3uBrxe8ubmoqGWvUuw4hHFvU+o4NMaMGwdr81dELTO+fnut8bXSGkY1MP7/lH4wtBu8uKG8d6flzMEjXLuyh72nrpuyW4QQotqphsmTOYNG1icnXEtGbWeGfTyC754sSGqyOLEyhhOZxnGLyM3hLFqfQsmvEh0xu06zaNEZ1p/K/4aOjGfRojP8duxGicjG/ZrSGhWdDghuSp+6Retq9OjDhvl+tPYycP5AMpcD2rPz3BjmPu1G85YuuBUrx7pTd1YuDKJnAERsieXoNRtsb2aQBYAVwZ+MZee8FoQ00nN8/Xm2Rym0f7EjT7awNmnPnP2sPRYWFlj0XwDJc+hsYYGFRXe+vZOHZFoG8/6f/0Wd2416br50eW42u2L1hautWk1h3bpRaL8aQoCnL53GfMUFW2csit3oVaPnZL7w38RgDyssLMyx8wyk+9OzCEs1mFRO9LzuWPSZT270x7S1sGDQj8VufTPB2DkwKBA0yZDuD6tmlwpwgtfmwrj2EL/PeGebfQf4z6/ww+iisOBPYOc8CGkEx9fD9iho/yI82aIo5sRKCh+hEbkZFq2H0inNiZWwaJHxGU8AyQeMr9efLdg58M7vMKYDEAsXasOCt8t7d+706NcZLPvSv3sZQ55CCCEKKVqt9q4eYxgbG0tQUFBVteceimCcspxFWPLa7ml8Gvyg2yMqZMggKTYT2/ru2GkA9NxMi2DJy7150/F7kub35h5PX6pmsln9tDOhyhJifxpSdEOAEEKIW1TDnifx73CUme26MHXtea5m5ZJ7M4vr2stcvpZNbRdnSZyqmnqcgztr8+yzIZI4CSHEbVSjWaEKVq62BDWoTYP/n7egieI0nXlj6dO8+cEAmo2J4SqOePk0o+uw71n3eusH3br/PWogr+/5BxtvSUuFEOJ2qtGwnRBCCCHE3ZNhOyGEEEIIE0jyJIQQQghhAkmehBBCCCFMIMmTEEIIIYQJJHkSQgghhDCBJE9CCCGEECaQ5KmALoXTh2PIqOjBDZWJEUIIIcT/tGr0kMyK5JGwezVbr3dnYrnPXyw7Rhd9kN3XHPCqUd52KtcijpHV5jG6eZW/u7Oj9xCmbUz3h9ywuE1rU//ZwNna3ehSv+ZtIoskn9xHooUzNRXgRjRnc4Po5JnBlZvFggw3OH8kmUbD+tOk3PcjhBBCVG+SPAG58btYc8qTARObUF7OUF5MWmw4uQ3G4lcvf0HcXyxPbMfj7QseY57E9oMu+FWQOAHU8PFG93kY55oPp+ltPhVXbxt+W76fxi/3wDYxioTrxbvCsok5Fo/vwAE0sSlYlsml02k4Pt6RhhrQHjhGtIcntWpnUNPCjPObN2PRdShN7cCvacV1CyGEENWdJE+5F9m+JhyfgRNpaG1qzE2Skmrg1aloiTZRi4Nnsd9/yUwkydaLLrcUms7JnWfAwyX/d9r0uHaoj3o+gghAfzWSCKUdQ9q7FY2t5mq5mmOHk2tjunazwA0F1dETL+ea2FqZoQBc3kuYUo8eNsWqUpNJugGaKGPZCefNqNNK4WrEKRK5SZKlLw0Swvn7Yjw27XoRID9uJoQQQpSrmidPucRs/YNzDQYy0dfK9Bg1iQStGS7RxqQEIOFcBnqbCCIKFqRGoHqG3Lqj9SlEXVDo0c0PxzJqjdu0ixr+tUtOSks+xJLdLjw5uhWBzfOX1bDDrnhrE+PR1O1d8odz0+LJaNCGVn5eQBLxR2rjbnmDmJOpOI3qT6C/BRYWKWw/lkJ9SZyEEEKIClXr5OnmhS2sjW7M0Ak+lPdzqBXGXIkn3acN/f18jL0+JHDxmD8dmhclRCnJB3HxKuOXiFMTSffwKTNxAi0JCfbU6VFyPv/1pEScAoNxUJI5sj0Oa69amAHorxB5wYauA1ugTUjHy79kqZkXL5KV50xERAbkxhBXw4fuhiT2aerQ7Oohlmy149FBei7b1KF2RTtMCCGEENU4eco+z19/xtJs+HjK/SH528RkXYynZr22+YkTcCORq/aexRKiHBITrfDqcOu2mYkJ6FUnIgq7qIpRE4jSeRJSok4DSQm51OlUAzLPEJ5WgxE9/LAEDOf+5G+XptTiGmeSauHVo2AbHelx5wlPssK3Tv5HnaOiJp/kdLQrWW6NMU/YjaXfYGyTtqF6dit6L0IIIYQoUzVNnrKI3LSOpOaPMa5OeZnT7WLyiI3WYl4/umiILjmCDEOzYgnRFc7metHrls2zORcFrfu3wM+u9DogRcuppl44l1iYRnyqG/VcQI1NxlCnXWFPWFrCFWrXdwR9BIk6L7oW1meOrZ0FLq0H0Nj2FMt2uzCyfz/82kDW0WWc9+pI/Dkd9TvVIO2UFidf2wr3mhBCCCGqafKUeXYT61Nb8MQgr3J3wG1j8qKJzGvNI639CuccJSUeo0nblvi55i+4vJcDzqWTICDzLOE0Y3BZiROAWzuGu5ValhVPQk0v2mkgLT4B8tKIiLgM6Ik7b4VneyAlgcse9UrUp7t0hH3X7fBxTeCGasHpfWuItu5C0M3aBPjGceaAE/6aXLJrNCLAFSGEEELcRvV7SOaN06zfeJmHhwTjbnbnMVlnI7B4qHmxydpZJKTUwNOlKCY3MQFLL49SQ2G5nN91Fq9uzan8U5rAkJhAlpcXNmSRdMWddh398fPzw8+vNrV9mlPPyjgUaOPpWay+DE6fVHi4rStXErJp/HBLAjsOYVArJ+p37Irt8WPYPNIZzaGVHNXUp3Z5nXBCCCGEKFTNkqcMTqzbTEa7IXR0Ky9zqkSMPoFDl+oQ3KTY3XeGBC4ZPHEvtkeTErLw9CyZImVH7+aEQ3c6lpu5le1yQhK1vdyAmgQNGUSTwkcmuPJQj2Y4oJKQkE0dr6L6DMmHOafPJXxvFNGpNfEqmA2uZnHxnx1c8OhF97r2NOjaFrOwfcTIk9OFEEKI26pWw3baY+vYmtWeMe1dy80abx+jJ+VELJ7BHSlxV3/KJdKdG2BLBpeORxCfpeX8BWc69i4KyUs9yt6kxoR09DBxx2dz6aI5dVqWkXBlX+Z8dBI5ZHDqkjutBxSsuMHJI3m0H/ko7P6JpcluDLycSY71dS7FX6eG/yME2+a/Q8sGdHrMEisDYFpOJ4QQQlQ71SZ5UrVHWLc9h+Cx7XApJ3OqTEzu5Rgy6j5Mk1LzlfTmPnRr5wWYUzeoKdc2rMblkQH45JeTq40j9qYv3To6mL7TDcloLQIILOsZTDVcaNgoh+1L9lEjeDi++fVlxkRi1qYbPlYW0Gssz/me5NjBPzmSmoleUVD37SIvL5fc3Dxyb4J7u/6E1AYbSZ6EEEKICilarfauBmtiY2MJCgqqqvbcM2p2CufTrGjo7VDu7fiViRFCCCFE9VZtep6UGm408r77GCGEEEJUb9VswrgQQgghxN2R5EkIIYQQwgSSPAkhhBBCmECSJyGEEEIIE0jyJIQQQghhAkmehBBCCCFMIMmTEEIIIYQJJHm6C9rwM/y8OIqYmw+6JaI6yzx7it1LIkmV41AIIe4LSZ7ulD6a93uuYMxTyxg5P/VBt+ZfK23VGOr4Ps/mjAfdkn8p/QVWD1jG0ud/4esFKQ+6NUIIUS1I8nSnNFY4OimABhdHi3taVdTilfTrMg+/F8+Qey8ryjjDkinDeNjXiZq2LjRsN5TXFuwjRVcqLnU1E1tOYLX27qu0dmlAUGB9nC3vvqz/NYlLlzOr5+e89cop8soL0lhT00FBNZhh63Bvj0MhhBBG1ebnWaqc4sVbOybQ7ZwZzdo73tOq0iNj2RSWCXX13NUPEVYogw2v9+SVSy/x29YFtHbJJfHEZubN/o6tvdszun6xPDvvMueOp9C5Chpj1+VtNnS5+3IAMOSRfT2Ni2f/ZnuiD+MfDfpXH+CZUbFc+DsDta6+/CDFi0F/TSLgvBl12zrdv8YJIUQ1Vm1+GBgiGKcsZxG+zPzNnSOfn2TbWQNNHu3MN1+2J8gGII4p3j8y85IC3q05GNmGmCl/Mv3XRCIz/NlwYzj9LAz88cz7DPmp2E8Hhw5DXRhQ+DL1l1/weDoag2NztqUMpYcFcGwrfg/tI7JGY1Ylj2KofQ5/L9zM579d5HD4NZJzLfEJqscTb/XktV6Oxi/9qDAebrKDf275meL6LL7yNKMLviv1Geyet4UPF13gn4t63ILqM2ZKb17r50TlO3SO8HbD1kS8n86KUQ7lxJxlRsumTD1ecqnjy9u4+kWPwtfRX3WhwUthWI1fz9XXsvjPy++yZPdZak7eT+zH7Y1Bp2YQ2HwqpwFw5629SczoWLLcw9P9eMnue2Zb/My0L1dy6mYD+r39PYsmNMe6ICgzgmXvT2X2sh2cunQdHaAxt6duyGfs/CMUn0q+ezUlirWvbWL3Ti1mTRrQuslVdi5NocZzz/DFjIZAOAvtfuUfLAneNJ3RneD4S//lm5/VYjGA/jrh3/zFup+iuJRgoGaADx1e70dIH2cK+4UyEtk7cyvb18aRmgo2DWpTv3dr+jz/EL61zeDcTt59aCvJmpKfu2rw4amLoXRyBDDwz/j/sui3ohj1icf57uvAkm/sZhqH5/zFpuUxJKcp2AX50vG1vvTt6ZSfWBa8r8Y8utqHuFkHOHU6j1rdOvHMt91oYF+8sEz2vtuDx76vwevrNvNqS+kuFEJUT9Vw2C6Gt8aeJM21Fi76LA78sIXQ+cn562oSNMyHIBsVLsbx5bPLGTk3kZgMA/g7Ud8CQKFO22aEhgbQP7Ds3efa25/eGiA9joPhxmWxB2KIRMFqgD/d7QEssUi5yP5r1gR1a0DfAA3nd4QzZeBvfHchvyA7F/qGNmNgCzPj6waejA0NIPT5prQo7GTIZf87P/LI5FMcyHWkT4g7VqcjmRbyI29uzzZhvzSibTcPtsx/n5UnUssZHvTnzcN55MV9Q3cG8ktaHnl5eaTN6VEiynfSDvL+egE1fBkTJi7FZ+pGVr7RjNoOtYqCAt/keF4eeXl7eNW9/FaFzxrHnJzRLD56iZNzmrH9pQ9ZVzhcmMPud0KYdKo98/ZdQpsezcYpgxk2bw8RJiROqFfY9uxiNq1LJdvehTq1ktn3a/Ltt7tFLpHvL2Tu1OPE5Trj19sD87Nn2Th8Ict2ZhfGnHznBxZ/FUWSzhn//vVwNlzh5Nz9nEnO/zvGrjaBTzanib/xc1fr1OWhJwJp82wz6hV2cio4tWlO6ycCadS4vNM4k8OvLGThzAgScp1oHFyLmwfOsG7odyzZnlUiUtGcY9WIPSTZO1AzL5u0DdtYsfxqqfLyuBp/kaSkGBKulR7LFUKI6qMaJk8ahn47gR1rx7H6bRcADv8eTiQAtRk5pyt9nADSWLremo/2TeCrnkATJ+oBoNB64jAWLhzGG73KmWPi1oTBPRXgOrsPaoGbHNiVBMCAQY1xyC+n5X9eIO6fUFYueZzfdz3F+22BnBT2Hs0xluPRlPcWDmNaSH4/S7u2fL1wGAvnt6FZQV2XTzFz1lV0mnrMDxvH8qXPsHdhE6zIYP68M1yp9H6xp//nW5nf7ixTOnpRt+UgJs1cxpHUkl+SGjNzzM00gGL8f3NzzEofRYoZ5hoF9m6EFxbxUnB96jTtQb/A2iU+BzNzc8zNlVv61YrL7PoOP74RjLe9DXVC+tMlN5qLhfOi4/h7TzTdR4+nQ117bBx86Du8JUdfnst2UyaHRRxn9249qsGFkNXPMXnNSzwxrKJWlePKCTbMvYKqqc+Ibc8x6adx/HeeP2ZcZ983pzDOic8i9ZwxcanVsyMjvnyKtw6+yQeHnqZPYP4go3szhn39OAP61DS+btuOsV8/zrgv2lG3sDKFBuMeZ9zXjxPSo5weoJgjbPr1hvF9rXmel397nudeckDRZLB/7jGKT1lTDRoaf/o8/101liEDjMuSY9NLFejAwAVRpKWeYXbXmqbvHyGE+B9RDZMnM3y87QBo5OdmXHT+OollRLZ9exBTO7gxfv101N9aYlPpOuzpN9gLgLD9F8nKu8je7SqY12Ngz4JSDCSE7eXFQV/T0O1DLDTzeeOQ8Qs7K7vc6cG3OpXAbh1guMgY9/dQlPeoNSyKHBR0x1KJrnxJYBvA6M82EZEQyeppXdFsnULn4GdYEVPBnJuKOI3gqQHOAPiO+IL3+ta+zQa30jjVonDkyMqKGugxGAoWeNM2uAH7163hQqYKBi3/bNhGbF1P3E0YUdJdSCVNo0CNOtT31wCWWNvdQfJ0+hLRelCIY2mj/zCh1n94ZUwEBo2CejIVY85XixZj/LFRVLQ/r+A/DWfy0ZhNHE80VJhE3gl9eCLxUOx9mePT2hMA9Z9kEkpEm+He2AkzLLG2y78sGMoY0Te3xcXZpjpeOIQQotC/eT7tXTPo8pMCvVrmROxAv9p3/IVWp58/wcQTtu0ix05YsuUqaEKa0js/f9Cd3MWAR8I4plNwb+XN8H7WJGyPJOyS6TUa225H72e9qVt8c1t3ypu9VBHzWr50HP4KHR8dhl8vb175diLDZ3a8/YalOTjjeE+nxVgT/OFKxndqR1O3ydia5WDWYChzlrxGKxNKUTSKMVGw0GB2ly1SAdVgT8PR9XAs/lnYuOcn3wouw0bzQeBZDq44zbE/Izi36hBxq05zYfEkJg6uVWa5d6dYQ9RbF5lGRVUVlKrO9IQQ4l+kGiZPKhkZuYAZJ48Zh9Jo5UrDqq7G25+hnbYStjeWxYssOI9Cn0GNcc1fnbj/Asd0CtRrzZpDIbQjjc+6RhJ2CXQ6Q4mi7OytgUy4kUsWYFV8ZYAnnc2PskEHzccMZFYnS0DlRmomGldb7mpwReNO/Ya2aG/cQKXY962iQYOhWA/Qg2M4voIfrD7hdNqzuORZYm9vbXICZOblQC1Aez2FxHho6pXB1fjS6bSCxgzQG9DlqKC/xuW4UjH+XviYHSZKr1Bn9BBGdbQCVG7mfxYFeWRe7CVSHRvT479N6TFVy9bBs1gZlsWJXYlQLHmqYW8FZEBGDrmAqQ8iMGvihgeQmB1PbISBQD8DsceMfaxKa3e8TCwPbnLg/WD6fmnN9B07mNy8Gl4+hBCCapk86fhu7HekdDLn2J/XAHMGjQ3AG4A0lr26i7/y58numbeKcYf8mf5Bs2JfNDfZ+el6lkZC8qH84bU9Bxk37iw2XTvzxRP5Q4E40XeoG5P3pvL99wAeDO5T1A9Uu5Er7iSQHHeC8QPTaXAlkY2H8otbG0nS2DZ45Mf6dvDBh8vErNtByPDz1Ll6mZrjnuKnx+3BNZA3X9nHptnpzO47jyMhHjhdTWP3zjweWz+Reb0rOdiY8BujHltJi7feYkibRnhYajmzcRbvLHEm9I8OJTsqXBoT4HmYLZvOMWCoBzejY8lr1Iy6BVmdqkdnUAEVg06H3swcs9I9FaoBvd6AirHXT1V16HTGOVUaE3o1cpITScw245rOGp+aZnc2nNQsgIcbhrE1OoE/Bn7LSVct5/aplGyIM64BoJzW88+r35DqkE700VIxri0IeX4P5766yq6hXxDXyxMbbQoX9uhpsWISz/S0gfRIfh30CwdS7ajb3hNHTToX9oBqMKdJW48SzXJt64udIY3rW7bx2ahzOGjTsHzmWSYOtwducuaLP9gfBdf+yZ/gtW8fC58/g1VwV5563B0atqL30L389EcaG4Z8Q0yQnphNWlSDPR1ebnkHvZJazhw8wrUrBvaeus7k5vJoBCFE9VQNpy6YM2hkfXLCtWTUdmbYxyP47smCr5EsTqyM4USm8QsxcnM4i9ancL3E9jpidp1m0aIzrD+V3/USGc+iRWf47diNEpGN+zWlNSo6HRDclD5Fs32p0aMPG+b70drLwPkDyVwOaM/Oc2OY+7QbzVu64FasHOtO3Vm5MIieARCxJZaj12ywvZmBcdqxFcGfjGXnvBaENNJzfP15tkcptH+xI0+2sKbSPPswdXILor4eT89mHrj6tif0pyweXbadGT3sSsZaBvP+n/9FnduNem6+dHluNrtii+ZFRc/rjkWf+eRGf0xbCwsG/VjGnWv7p1HHwgILi87MSU5mVmcLLCwseGxp6UnKFavRczJf+G9isIcVFhbm2HkG0v3pWYSlmtAtZlaXvgt7E9S8JmpKOtc92tClb+lTw5Wus7rSpLE1pGnJbtKRcR/4loqxwv+D8Uye3YrGvnoSN0dx7pyGeuM70SkoP7N09CHk0x60aW1J+qFznNlzHas2/jyycDz/x955h7dZnvv/I8mSh+S9JY84tmN5xHb2cPYeZBKghJWWUTo40J5C1zmnhZ6entL2/A4t9JwCbaE0bJJAAiFkTyeOEzvxkveSZEtesuUl2ZJ+f0heIQkZlHDw87kuX5f9vPez7ve13q/u536f95G7x8oZRc5yvvP7aSROgpbDNTRaVHj3d3mehBzEfPQi+duLqKxwz1VS10j+9iLOFw5dhwHM+ePDPPDEJKIlbZQftqCYmcaatx/mnqU3EpOMYuma+aBYzW1LhHASCATjl3G4z5OCfz76E3674FaPR3DTOK001fWgmhCFO8fZQX+Lju2Pr+Sp4D/T9MLK69jnaiyX3cNp3NPHjgdCeUiynbpXNhHw2RUEV3qeIQAAIABJREFUAoHgK8k4jDwJvjqc59ezF/Lj96to77Vj7++ly9JKa2cf4WGhNyycBFfAVcjpw+E8+OBaIZwEAsG4ZhzlPEnwjlCRlRhO4o08gib48iGdz5OvP8BTv1hHxrZa2glGk5DBoi1/ZvcPpt9U06qkWNST2ulTiMfKhnFN5gfHz6KME7JUIBCMb8bRsp1AIBAIBALBzSOW7QQCgUAgEAiuAyGeBAKBQCAQCK4DIZ4EAoFAIBAIrgMhngQCgUAgEAiuAyGeBAKBQCAQCK4DIZ4EAoFAIBAIrgMhnoYYNFGcX4v1ahs3XIuNQCAQCASCrzRCPAEwgOHoDvY32vG64p6I12IDmE7y9x0X6HBcxQaAQWoOvMXRxv6xxZZzvPNWPu1XeTWb+eyHHK3r/awOLsGB4eib7C61MKL9XLTlvsm7Fy1Xr2o+yeu7SrCOKnKaTvL2ByV0Xk1IOqvZ99oh6oenaOHszg8ottjp6bZxLRrUcPTvfFBs4YrucHahL9eh03l+Ss7w/mt7KDHUj5TpdOh0JRx79z3OXXaqDvo69JTl7eet/32N3NZrGVkvRXt2UDh8op10GcrH9ll2joP7LzK2Swe9rfVcPLmbV147Sp25lvLR4y/LZ//ec7R+5vUjEAgEgluFEE+AXX+EnUVq1q1OwfcmbABszfUMqOMJlo0qdLk+LRSsFzljTiBLPfrlvb2UHCqiL8wHxVXOTESckovvn6IJF1bjJTdsXQF739hNec/YOgNNx9h93kmQo5lyXTEndu4iv66AjwsgWtqMTqej5Mxu3jthZHBMzUFqi1pIzklh5PXAPRQdLSNw8kQCryYk2wwYguOJG5qio4k6ayQTguQ4DQd45bWTGK8qElqo0kmZkBg09kJ1OEbElFRJqCYW9WAJea2haNNnseG+20gP96ff1IYyTotWq0UbP4hZnk7mqN3lbR0GaqvLKb14gh3bT9EbN4N1D97DnDAjZw+epdTj09L8fezOM48RcLaaQ5zpjURhOMMnJ2qxIUUZNoEJ0nJOmULcfapaafaJJhDA0Y25vpYqXRnHPzhKd3IOt9++gAmhcajkCuK0WrTaJIJaq7BGxhM4+voRCAQCwZeKcfR6litgb+DgzlIS1j9Kks912Di7MFQaP7WE16ZrwSuyGZ2u2VPSR2Puaaxz7mOzVkWfuZr69gG6Ss4wGL2A5rJT7D/TRPpdtxNbt59SzVru8C/hXLODeVGX3EHtFtpt/oRETGLRYjmRSHAFq9GE+qHyliEBaD3BMUk8S5Wj6vXWcDTPmw33ablYHkRyTgSTkjXoTjew/OGvoaw4yAnJDFbM0pI+qlpHyQl0gzba7HEktZVwKLediSsXE1m3n1xnKgts9eh00NtYhCluLatT/MBuRFfrQ2JKCM4mI97qGQzrK5OR7qgUVEggZTkrXI2ohqbYa6KqoWOscOutoMgVyIJ6HbqhMmcXFUfP4Fj8dTZpVYAMX2Uvefkw8+7wUZWNVDX5McnP05SuEoV2A/JRFt7BGhKCAbuNi8X+ZEQF4Q1gaaDYEsz9S7XIAMPBU8gSl44IuN5KTlQn8LU7kzAd/BifhDRkgExuJTffydwNEe7pVrcSNSncPX+Zgi5TO4HTYlEUxhDeeIjd/XO5I0dNuK2Zix3xJDZ+zCmvRaybGjZmnAKBQCD4cjHOxZOd2v27qExcz6MTva/PRqokRK0hzE+Ft0wCDGA4+GfeLo9gXqqEMG0KYR5TrXbKcDWfoGhiHAXs8ZnKlCBfolLS0WbAgOks+9uzWLcgHJ/BBLrf+BDdurVog0YJqOYzbD8axn33TmNypqfM139URAjsRj3S2JUjL8W1myg810n66rlES4vJM5gxl+Wy42QoW7YtIMILiA/A/EENfSnZ+A23NEBjSQO+67ZyWxbQk09hcTiz7TqO1yaz9a50AiQA7Rw/PoBmnicepwhHUvI8O+2PMNPQR2SCGZ2uzz2U2moGCEen6wb6MZw+Tov9Ab6WGQC+QUSp/fH290MuAeijfNdZMpdPw0uRjDZ2xA/atJljzlB/2XHqEuezYNTpsVdVQtoqz3x6KauSk7pplCTpM1NV3+4Wa2062qUaakvOUKEbYFqKCZkmFXePPRiNKuIXeP5VHK3k7TiFbfIs9HlHqFZMILiqGH10FrbcPBSL1hDfU8bZQj2VzRNYuXCoQwXeHaWUGWU0d1vw9l3EndPC3P+AiSE0vfJX6tPXsi4nSggngUAg+JIzrpft+qs/4f2aSWxclsCVXnV6ZRsZvv7+HuEE9vpD7G8PJzY6hsnendR1Xb49icJO2ck2smfLKaroxtsLBtqrKGyKZPGCCfgAeMWzaJ43h178Mx/pRvJ9upqMhExOI0jSzLmDZygZzvM5yfsfFNIJNBk60GiCPTVcWNtdJOVMIVoBeE1i1sQqDpTFsXGRgopaq3s5UZXFnVuyRgknADNN/VGoPZrIaTAimxBMTdEgU5cPCSegv5F6eSITfYcK5CTMXElW7ADGliDiE8JQx05kkjYBrAEkRsgJ1mrRarNZuu0xt3ACkHijChgSTtBbfoD8gCXMTYzFXpFP65WSngYaOXrQRKh/O7qzBzla2QM4qK1ykJzsGXxPGdU+qUwc/VXBJ4T4pBS0E32pzqsiZtoctOmzWH/7PCSmTiI1nvU9VxMGhwaNHKAHY2UdRkU8M7KU1OpDWTzXh5ZOCa4GEwGzVjIzqptWWyzJcXEsXjeXUAlAP+ZqHR2RkwmtK8USpCao/zzv7C7Baq0j72gdIVPTkNTlklfSSEfv4DXlgwkEAoHg1jB+xVNfFR9/UEfGpiVc8SXx12IDOC1F7D4hZ/mMIGzRasJivGgpaLpMkrMDU+4uzsuioVSHVd7Gge3vUdCvQdN2gD3FXe6bpr2VrqBlbPv2VlZqh/J9nDQZ7MSofaFHT2mLL8ladz7PJEUbnWHxBNKJoSkQjXqoPwn+UVGopIDdTOHe3RRI53Ln5mlokqaR3H6A9/YXoLfK8FZckrzUbaQ1QDMcPWsx9KLykRGb7Ut9Scfw3Jz6enpi41CNqqqISSNFacQg0aD2VhKgVCDtK6cMLQkOKwNXOS3gwlq5l78fUTBvngYv/Jms7eHjnecw2y61tWMoKqQhKJN52VpC+zrxClFCVzH5ZjmOere4vHi8kG5vG+f3H6R0SNRKvJB7DaI/fozywWBsDUfJr7UwSC9Gox+ayOGJ0xGhxi2llKgn+jDQO0DLhQs09/fRcK4YmzqNhEmBVLz/IdWGUo7kNSKPTSFaOeRTHwIj1SRpwzAUNpM0ZzapqdOYmwK1jV6kZ/pRYwhj9cZZ+OmPsXtvLhUt9qt6SSAQCAS3jnEqnnop37ubpsxNLIq5kiq6Fhugt5YD+41kb1hMUKsRf40aiVJLlOkA5zoulU8yglM3cO/GGYRJJEyctZh1997OTLWUZnMAGdoA6Knj4Fu7OFTejEKlYmSxqgW9ORJNGLhMzThj1MORsBZDG+HqYHA0YRzUoB4z3AE6KvM4uO8UTSEpJPhZqNXp0OmqMXU7wNlG7vYX+NP2new9nE9Dtzvm4TQasWKlwvOkWkGjD0lpUQT6hWM/v4fCbnfrpvomouMjR3eIzVTOxeMFtEVpGEq9spaUIEtNQd5tpfcKUSRXv5nikwfI68zgnrsnUPj37eQ1DyDTLGRVYi1v/uF/effQOcrrW+h1QL/ZgDQmmuAwDUHYaWr1Rh0CKONZsXkNUz3iMnPVg3xjeTDtHT5Ej1rj7Ks+xoWgTFLDJjFvThzGD97kdIsR/Sgf9huN+IyoUWg2IM2YQ4q3g9Cpc4mTgb8mmO6ig5Qr1dgqquj3G6Dq0Ht8VNo9XM1b5UvHmZNUOkPoLnyPo00ylN4yFNJuGopr6PPqp7bsAmX9WWy+fT4p4Ve55gQCgUBwSxmXOU89ZXvZY87mng2aKzrgWmycneUcPtZM8pqVJChdVBr60Mx2LxVl5ETz4ms78b1/Ixmj8pYUQcEosFNtsCMJK6eixofQKCdGZySTG/I5qpeSsukbLFVdomt79Rj8NMyWQoveAAMt6HStgIP6Km/UcwCTgdboeELdo6PHVI++rRdpaAZL1mbS0ydFqVSMJHBrtWQBOHMwV5Zg9EkjTuU+2mLsIXnWdLTRgKuaigI1aimACn9VP9YBACsNDSric9xjdfWbKc7NpzV6DlP8nVQq3YnTDNRzokLNgq/5Ij3VRqUJJkUPe9E9zvZeBvBDkzaZIFcIcm8Xy3JqONo+CFG+hGVv4ZvqUk6drMLUH0usBHwiEoisLEaqmQw0YSCCiEYdOs8uDm1mcPXUcr5Bw7oZJiya6QR7Jj9oPsex5mSWZ5p4s05NhF8iK+/0pmuwCl14HCGe0TUZ+tHMGEmmsujN2Bx68uvaccRXkl8JmlUVnDfM4r4NCZg/riJjTiZZQZlu33rorjxFVVQGE8I7yZnpR4XVl4AwNb5yFR0NBaTPySQtJJO06Ve42AQCgUDwpWH8iafuYvZ81MrMezdy6cNs127jotdwkfz6QaITI7E16tDRTVmDDFWyDp2hgXM1Suan1/DBCy9QtuJO1s8IxFJeRlVjM52uPho61dwWn0yMrxTaT9IhVyAPzWLRRDkwyKBDiteovp1GA72a6SjppaotitmrU0nxATDTa8gk3ht6jAaU6jnD4sgnbAIpkRJoLeJYnoSIoEtPtw1DRSsTVywlIWU6EcPlfeibvImZ7/mz1Yg1LMETRZKSsOIuvAMAex01rgms9gEYoObIAcypG1ka70P5TifqxXLASUteHpI5G4iQgj0IqirNLI6O8IxTgm94PCmRffT0+OHTuIM3a6dz3xQDH51TMH2DJ2/J2kyrYhKLN6WNmUGLoQOHdy26gko6A6cTFu5PgMwP5fBeD1pSp7nQ7y8lZpo7F2ygvZrS9hgW50QiK8/HpV7iflouOgbl+cMMuALR6XRAHxWGIFJXD/XWT11LGHPXxdG6s5bpM8KobfDBWmYiIDScet1FqhrtKCfoKC4t5ULvNO5YFo/LVEKFNIv5YSW8EawhKDQETXstNY0AdqrrbfjE6tCZHbSXFtI77Q6WxYvIk0AgEHxZGWfiycqF3fuwzr6PnMgrKafPsHFYaapppEuZxLy5vjgGQC6XQl8hZwMzWZGmRYkW7VSAaYQndxEaF4ECO71dvYRlLWGu/Dyv26PdwgmwG5vw0a5HHeh5zqq9jjpJEknBI922GpoI10QCMrI2bRg1oAimLo0AXFQY+oiZNZT2LUXmGb7dWEa91xoWaEdnJgHWPPKKIpl/6RYNLiN6p4Ylnvq2JiPe0bOGDysD3EneA7XVdCfM9uQDyUlctZVEAEzoO8JJDgJ74wlOk8PKBLcYUCRMRLFnPxenbCXLXwJIkEoHaT55EmP6CqKNVhInx6OKimV+Wj42GQxUV2GYGEHbW38hP+suNqQGekbSh741hOm3a4mpNtIUFI7c1+vTT6u59BS3xTIrBHB10+GIIlOrRAIY9e1EJA5t/uTCoLeRPnsK2gjAXkzJuTiih3RYVzHG0KlkYeQiajLtRs56T2J1ViT4+OMrKaekKIsVWi0KtGQADFho9kpiaqI39iIjXurpIPUiVBNLuK8fCioovZjNslSte5sEbfqloxcIBALBl4xxJZ4sBbvZ3zuHbXMirpjs9Zk2EiWRyWkMrTpJPXdqp6GB7uipKMcY+xA9vEOkgoQZ8wCwF+mRRo9sX2A29hKeNRJpsFTWY0lPGtVOH40NXsRMuYyY62ulqqYJG1aKGqOYvu7TJqbmNmS+enS6Sw40leOKWffpJw1b9JicLgyeCm2lNqKXe6x6miitbkfm46DqWCvpm6M+3WFPIwYfNbNbijnZGMPSnJH8LJRpTE04wPt/eQfX1tvJDh+k/tAbfNI3l3uC+ilr8kMzH0BKdPZMYJDKOgM+iUlkz5lEfcuodHNXG7aQFKIlIE9awuIxg7DTXl1KrVWOvL0Qa/I6ggEkKiKGt4PqwaD3RT1vxM8+iYvJGjrulcrGrTJP3pmNmhInWTMjkZhLsQanIjeexxW9EF+V56wb9PRGZI71pzyIqFDP4cZuoqa7lwB9huoY9fSEpXOljTIEAoFA8OVj3Ignl+Ucuw/aWPCN2YRdQTldiw1S6WVFVYvJyoQJEZc58qleMHXISE4d2adc4tVL6d53aPOXAnYsrQ5SYwdANaTMmrHI05kccJnmfMNISrZxcPtJfBfcwcRPDc6CuXcSOUu1xF+ivVp7q9Gqgy6tgN3iIHnePLQJCsDCmaIoooeSgJTRpMSZ2fVWAX45m5gVepkZdjgIjvVC3xfDgrlBjO3Wj8krtoAljJQQGSAjfsk2HgagC2gl7/330A2tPQ52YmoPZdFMkMUvYnP8qKYkMcxdchmfAKAgJDGd7oPbOTQ4h9unXsZ5DhPWgHSmDCsXP2LTE0eOS2XDY+9pqkeRPgONAlyqKaxMq+eD/YOkbRqRyxZTD+q4yzgEgA7abPEkXHK4pxMSkq9URyAQCARfRiQWi+WmtpSpq6sjKyvrsw1vMa4+E1Ut3iTFBXGlN4pci834w4HDIRteAhQIBAKBYLwzbiJPEt9IkuNu3mb8IYSTQCAQCASjGaf7PAkEAoFAIBDcGEI8CQQCgUAgEFwHQjwJBAKBQCAQXAdCPAkEAoFAIBBcB0I8CQQCgUAgEFwHQjwJBAKBQCAQXAdCPAkEAoFAIBBcB0I83QSW0hJefa2C2v5bPZIvOa4+Ojv6cNzqcXxJcdgHuamdagUCgUDwhSLE043iqOGZ5e+w7f43uPsF860ezZcb+z6+E7KQ31fc6oF8OSn6wdN8O+5X/OJ3Dbd6KAKBQCC4BoR4ulGk3gSHSAApYcHyf2hXFa+9y5qFz6N9rAT7P7QncJhO8j+Pr2fqhFBUqkhSF97L0++W0v0P7vdT2Hdxr0SCZMazlA+Vnf4p8RIJft/Z90WP5h+MC2dnN20t13F2L+7jh/4/4RH/f+OvB5zAIGcf/infDPwpjyw9gpDzAoFA8I9DiKcbRaLhh4e+yfGTj/L3rwf/Q7vqKK9j77E2yjsc/9jlnY79PL5wE29638PLx2sw6c/z1lOZdBmtX/y7/qxWuqJiiS05ydk2d1Hd+VyIi6OvsxvbjbbrHKDPYqQ8dxd/fO8Cg5/XeL9orP30AxKpA0N5G9BGU4nn6ujop+8Gm3XZbXQbmih5ez//u3EvFc7PabwCgUDwFWIciScdD0t+jkTyN559+xPumvNbQoOeZe6DuVzoGbKp50dxP0cieRpJ/Iec6Tfz5hMvow17Bon3O3w0AOBk19fdNt4Rf2J+zh8JfqRkTE/mv/0NmeTnSEJ2cHDAU1iwH63k50j8XmdHF4CNvJc+4O5lz5Os/iX+Yb8hc+nb/PqTjpEbesUxZkp+zuxfega4fSc+kqeRSF7l7+2jOnRYOfrceyyf/CxBgb8iZcEb/Oqj9uuMUjnI/c23eS31d7z17F1MjQ1EGaQhc+1T/O6fZqEctuuhePv3WZupIShITdZt3+ON0p6xTbnMHHn2a8zQhBKdtpTHXrmA9TL9GQ89yz1zJxIaGIZ26aP8Kd8ycri7m07lMpYtPMrpc3agj4K8KpYvnwFd1pFImMPIgV9vY35yGP5BMWTOv50fvHwG8+ibfo+ON364ialxgchlCvyCNaQteIBnXztL43X5CHov5vPmvX/gqQk/4zHt7/jlA3s4caFnRNT2t5D/H6/xi8xn+E70L/jRqu3s3t8+RqQ5m8rZsfX/8UTMM/xw3Q7yqi4jiR1dlD7/Nr+e/u98N/oZnlr2Grs+bmPocnJ12+hHgU8wGHVmHHYzTTpvvANd0GljOA3PauTEv7zK05Of4TuRz/DU3P/hj0+fpaZlJAPNZa5m7xN/4qfJP+NboU/zz2nP8/uHj3D+VA31NaMH1cOJn81GHbOY/yr4R8dABQKB4MvLOBJPQ9Tyw29cpCUikDBHL7l/+YSHXmj2HPMja0sCWUoXNNTz+wff5O7njNRanZAawgQ5gISYWRk89FA6t02+vPsiVqayUgp01HO61F1Wl1tLORK816WyJABAgdzUwKlOH7IWJ7I6XUrVoVJ+tP4tXqz2NOQfxuqHMlif7Xkzb6KabzyUzkPfTiM7ZKg3O6f+7a8se6KIXHswq9ZG4V1czk/W/pWnDl5P/OE8u1+v47Z7NhJ1FSvLvqdY84NKVv7vGerq8vjDgjK+u+ZHHBq1rqd/9SHW/d7OgzuLKc/9C+tNxzhxSTv2i79j09dzmf3bI9Toy9nxHTl/XP8Euzs8BtYuOiQxLFqcxOEzJUAxZ0/OY+E8H+gcEU+WnU+y8S8+fP/jSkyGC3zw3P1E9ViQDp8aG0f/bS3fLZrD8ycbsXTU8NGPNrLl+ePodj1EwnV4aODiQX63bAeH3jfhTE4gJUtBx4fFlDe7PJG5HvK/9xIv/VqHwR7CpAWB9OeWsHvzi2w/2OtuxGlm3wOvse/DVmwBoai9aik6fql4slP+zEs89+NC6u2haFdG41VWxkd3vMQbh93ntL+7HxdOwhLDGSwy0VrXgsERTOgEoK3fI57sXPy3v/DaHypoGgwl9bZ4Qp1tXHzuFCXNnj6dJj66+xV2/bUBizKayeuiUUokBKxazo8qv83ypDEeoF3fQFNTLYbO/7MxO4FAILhpxqF4krL5f7/JofcfZse/hgGQ/3apJ68mnLv/axGrQgBaeH2PD788+U3+sBxICSEeAAnTH93CSy9t4ckVV8h1ikxh43IJ0MXR0xagn9wjTQCs2zCJIE87U376HerPPsS727/G20fu55lZgM3EifOeRanoNJ5+aQs/Wevj/nv2LP740hZeemEGGUN9tRbx62fbGZTG88Kxh3nz9a9z4qUUvLHywvMltF2rW3obqKnXkBjvfxUjCx+9/DL+33qax+bGEBQUw4Lv/ytfd77E3/YPyZka3nlxN6mP/5JHZ0YTEBjP8h8+xuox7dg58uJvcX7nlzw2N45A/1DSNv+MJ6Zt582DnhhVdxftCjmZOUuxHM+jqfEcubHzWBCuBMuIeOq1dNAj8ULp74+fMpQJUzfwg8dXEjbcVz15x2tYcu8jzI0NQBmUwOo7pnD+8ec4eF3Bkx7yfn0EvU2Cz5bN/OyTbXz3rcf4j8rHuG+lym1Se469f+/G5Qxj7c5v8/hb3+Zb/xSERGrl1HMFWACKznMk14nLGc6aHd/i8Z2Pce8dlyyKtl3gw+facEkncNeBb/HdVx7mX55PRUYXJ/+nCCtgs/YjkTqISFfjVWymsbyFlpRQIuWAw0Z/D0Av5kq3aAtcnsNdv7+fH55+il+ceYBVk708p6uUs3kOXM5IbnvvUb7z+re4914ZnR/t5913Oy/xQRDr/1RBi7mE3yzyux7nCQQCwVeKcSieZCTEuQVCsjbSXVTVhfEylrP+dQM/nhvJI3t+juutKaOWrj6LANZs1ABw7FQDvQMNnDjoAq941i8fasWJ4dgJHtvwR5Ii/x259AWePOO+ifb2DVyh3ctQZODoIOBsYFvU00gkTxO4pQIbEgYLzNR8ZgMeXABSJFdNbqql/KKdySlJIzlQXolMSrNRUul5UsxVRfl5KVmpSVdqBNBTcr6FkmdXEBcX5/mZyg8PD2JobnWbWLto9fdDNXU+K87lcvxkHub5M4lXqQju6BoWT+q7/pM/zT7OHckpLL7nB/zXO/mYx7gvjlkLEjm1eyfVPS5wWjj74QHqYtVEKa7VOQBGqo+6l7omLk/B3+MARbCSoWYcpUb0AL4xTEiVAl4kTFe73XK2GQPQX9WCRSoB/1gmaqWAAm/VJU4vbqTGARLqeT3ZnQT+vW06nFIJrotmTECv1R1bkqZFEWNrpuBjM67saDQSgH76egACyd6WilLiwvLqO/w06df8ctteCo3OkfOn9MYXgG6ayjqxW1sx1gwikY70MQYvFWGhyvH4wSEQCATDeN3qAdxKnIOevA+H67KJ2JO14TecKB2zJpUF6Dl2oIGCCwo+aQfp2jRWhruPD148wrplxygYlBA1LY471vhgOFjOscbr79E9dn9WPhhH7OjqqihPlOsaUMYxMd5ATX03TFddsSeXEySXUVgjZVKkXuC6qgpz4XJBzr/u4/WtEWOOyJXu9cg+axe2ABVK31nMn/MdnvtDIAv+JRP8PyK01TSS8+SfySOvFLD1FwUcP/gx23+9gt+/9RyH376PBCmADwv+/V0emTebtMgnUMlsyBI381/b/5lp1+obAJw4PZeLVPZZ52jUcdfYIqfLUyCVXFWAuACXM4Cke+MJHt2dMgol0D8knhI0xIV/wpldUqKe1OBjAOinrxuIkBC25V5+MbmM0+8UU/CBjsr3zlD/XjHVr32XRzcGQvQUNvy4gD/+ysCZe57lzFD/YUks33K5BVwXLpfkM0S2QCAQfLUZh+LJhdVqB2RcLHAvpTEtgqvFSW6IuFQ2z9vPsRN1vPaynCokrNowiSGpYDxVTcGgBOKns/PMWmbTwu8WlXOsEQYHxz7i5B/gA/RAt51ewHv0wXQ1873O8+EgZG5bz7PzFICLbnMP0ggV1764MpV1W+NY++YHmG/fSsRlbSaQnCFlV0U1LrLdemCwmopSXyZ/O85tIollgtbJ7qo6GPLqoOOSp9piSc0O4T/L6lGFp3siH2Pp7u6EABVKwpm7KIoHn4zg0ekKsAQQ0leB1TbaEVJUsdNYvW0aq2fKmZL+Ah/U3Mfjnu6dhe/wF+9fUdzyIGEDCgICfJBds1+GiCZuloTcw1BzvIbeuzLww0VPgwVJXDB+gCwlkmjA2KenTudkstZJXYE7pimZHoUG8NUE4+t00dvZjEEPqepO2hovke6pGhJk+VQ4JMTcu4mtOd6Ai37POVUAZV02XE4JXl5RxE1zcuxjCbHaKOTHAPrp96jLgbpGzMEaQZZbAAAgAElEQVSTWPovaSz9sYX9G5/l3WO9XDhihI2BgC+x82MJ+J0Jr/VTSAh04Tsxjql3ZpP0Ke3UT+4zC1j9ex9+fugQT2SOw48PgUAgYFyKp0Fe/MaLmOZ5UfBBJ+DFhm+k4771t/DG94/wsedJtuPPv8fDZ1L5+S8y0AzX7+fwb/fwejk0n/GsDx0/zcMPl6FcNJ//vsezFEgIqzdH8sQJM3/+M0A0G1eNxIHCkyOIwkBz/QUeWd9BYpuRjzxf+4+/X07TN2YQ7bGdODeBBFqp3X2ItXdUEdPeit/D9/PK1wIgYjJPfe8ke3/TwW9WP8+5tdGEtLdw9PAAd+55lOdXXutio4w5P/gjW+fez90/9ea/vr2cJKWVhsJ9/GWvgm//8l4SvEJY8/VtPPWtn/PHZS9wj9bFxRd/wSu+j7Jr6VA/KWy8dx4/fP6XvLHsN9wWYWT3M//Jh0iYNdyXgiUPfQ9Nzo95cmkcP1sTh6M+lzd3dbHhR3eQIIXuLotHPEHKg29SsMKLxHDAGUgIXVi7Ae8e8v/7x+wIu4tvLM8k2ruN/PcPUxuaTlLkyMxszUaMfTI6B31I8JPd4JJTALOfnM2BI7m0vvo2P685R6x3G9WH+kl7/TEeWesPSdNYufkEr+xq4cNN/0NtloPavRZczgDmPj7FHQWcmsGMuFyO6Q3s2vgnioPbKT/tAumoUE5ENmu/fZzKP7RzZPN/U79CjdJiovq4g+x3vsvXl/vRZ+0HvJDKlUx5+gGCHvUifLo31a8C9NNnBTrK+fuGv5Fr9id2jppgaQfVx8Hl9CJl1tDV5aJ6xznMdgcBTd3YfOUM1DRQuFOB992TiQ0aHWKyUHL6HJ1tTk4UdfFEZggCgUAwHhmHqQtebLh7ArZSC9bwULb8x128eN+QqOnlwru1XOhx3zDK95Xy8h4TXWPqD1J7pJiXXy5hT5EnQlSu5+WXS3irYOxWkpPWpDEdF4ODwII0VsWOHPNduooPX9AyXeOkKreZ1vQ5HK7cxnMPRJI5JYxR93585i3h3ZeyWJ4Ouk/qON+pRNVvxZ0K7M2CX32Dw89nszbZQeGeKg5WSJjzWA73Zftcn2tClvPc0Xe5vftVHsxJIDJmCht/eoCAmdMI84RqQtc/x95/j+P9B6cTHz+Lx09m8qfd/8G8URpt0qMv89qqBv5t/gQmLPwJZau/z0OXRDG8p/2I3bu3YvnDJtLVE5m37Q9Uq0KRe0JUVquFQH8VMkASnEB2Ziz+AKoAAumkuxvAh5gZafS++wTLUiNRZ6zhx2eSeXbvb1gzKu/dd/kT/HfqXjZGeyOXe+GvnsySB57lmPn6NjHyy1nLDz9azdzlwQxerKaiHKK2ZJMRK/WszgUw548P88ATk4iWtFF+2IJiZhpr3n6Ye5Z6YoDeCWzevpYp05TQaKIlbBpfezLmkp68Sf3FIzzxm2lMmujAuK+Cykop8Y/MY16WN2Cnr9MFyJDJwD8thcyliUQHypD7Atjo63ZBcAJrf7uUGdMVdJyppOR4F94zUln20iM8cvfQNS9h0gMrmDJdRX9eGee2F3H2r+fY/6O3+I+1n1A7Jqk+iqVr5oNiNbctEcJJIBCMXyQWi+Wm9l2sq6sjKyvr8xrPPxAdD0ve5GUU/PPRn/DbBbd6PIIvBKeVproeVBOi8JcCOOhv0bH98ZU8Ffxnml5YyXXljX/F6DybT975PvymTSFnugpwYSs6yH/OPYSBcDac+x5rJw1Z97HjgVAekmyn7pVNBNzCcQsEAsGtZBwu2wnGF+f59exHGPzThzyzMg6V1EaXpZXWzj7Ck0PHtXAC8DLo2PWDUgYCTnNyhYZAuQPrxVqMUgmSCYkkx40ydhVy+nA4D25fK4STQCAY14wj8STBO0JFVmI4idf8CJrg/zzS+Tz5+gM89Yt1ZGyrpZ1gNAkZLNryZ3b/YPqtHt0tR7lhA//0rC973qyicV8ZNXYpPrFhpD40mWXfm8ek0Su/rsn84PhZlHHjXXIKBILxzjhathMIBAKBQCC4ecZhwrhAIBAIBALBjSPEk0AgEAgEAsF1IMSTQCAQCAQCwXUgxJNAIBAIBALBdSDEk0AgEAgEAsF1IMSTQCAQCAQCwXUgxNMQgyaK82uxXm3jhmuxEQi+VNgp/vB18poHbvVAvpo4W8h7fzcXWx1jil0u8SEhEHyVGUebZF6NAQxHd7C/awmPXnHfxMvZtHHxWAWyiGBkV2vdcJGayDVsyFCNKnVgOPoO58NXcVtaEO636bloy32Lw8pVbMn8PHfyvEXjNJ/k9VNBrNuYztCr5pymk7x7JoiV69IJlFy56jD1B3m1SM2mtakEXIs9AL1UHviIavVSVqYFc83VPkfMue9yNngFa7WftRd3Dxc+OoTXnLWkBw99l7FjH1CgkF/a6I34swVjUzCpUXLARZehAuMY9T9IW0kh3VNvZ2WCLzBAT/cgfirfUX5zYc7dQX7oStbENnDwlA9zlk7E70pzP/shZeGLWTjhShafH+0lxynr90d5xQvbQYuunoi1m8nyv+RQTzG7Puxl3u0z3e9utOvJPWwgbsEsNL6Xb01/9hMMfnEEju7P0URRSRmKSPfHqcOi43hJAOvvW4Ja7CcqEHwlEeIJsOuPsLNIzbpHU7jCZ+blbewGSurlbFigveKNBJzoyopImK8aUzrQdIzd552kL2umXKentawKnylxlBfAhAXN6HTNODor0Q1MY8M89c2dqFsyzkFqi1pIzpnFyD2rh6KjZQTOuOfahBPQYahFHptzdeHkbCL3cA3BmtCRMp8OTh/IJ1YaOywYndZ66hWzWJUVdOOCytmFodI4KvropLOmGtmMNUwPH+rJTnN9P9FZlwqnNi4c1iGLDh1zPjvqznGkNwZZhi/goL3kEKcHFvLQXZmj5n2D/uxpwhQQw2IAJKgiJjJJIx8bctZmjPpDzkDZTl7tnsXWxfEMWK34SGo5VOLPvPtVoIhCUbWDohkTmRXgwuWSILmk74g4JW+9eYpJjy9FZazA0DVarPVRW6Bn4vp1pCi5Sezoi+vwWXcf2X5Wcv/2CSH33E6KzMAn26uZes8CwpzlvHc2jCmXCifsVB/OR5o4h9ZKHa2e0l7zKU6e9yczVIrdXESxYy5bFms8r/Hpxljaht/dK9AqwOl0IpVKQatlJuBy4fGFlvTZNzs3gUDwZUaIJ3sDB3eWkrD+UZJ8rtOmuYk+9eSrCBIAMwZbJFmjv4H21nA0z5sN92m5WB5Eck4Ek5I16E43sPzhr6GsOMgJyQxWzNKSfrPzuwXj7Cg5gW7QRps9jqS2Eg7ltjNx5WIi6/aT60xlga0enQ56G4swxa1ldcrQyAzkHzTip/H33NxdGCp68E6tQ6dzWwy2laGTzmXTnEiPKBqk+cQntMXcy5wUG40V7YRNisEXLT+f0UO3VIlKDgwYyd3vhTpTioObuPClSkI1sYT7+qGQSaD9JH85Hcy6MaEIE4Z+NdMudbjdQInem42Lx4rYlMSfMl8uH4kKatOZe5P+tLXWUttqA3M5XdIECva8S1/2ehbGfHYoJGjydNJ0vnj1NtJg9Wcw9wj2iUvortGhYxBpSgq+xhJO7T9OefgG7lsQ7fan3UK7zZ+QiEksWiwnEgmuYDWaUD9U3jK3YG09wTFJPEtvWjgBGGk0gU9FIYWY0XU6mFRUSN9AAzV9XoQXFqLvrsAYlkXoJTXt9UfJ813GlswQ+ge8UPopkAJarXbESKslc3QlZxMGRwwLPS6s/2Q7dZl3sVitANo49cZRQtdvQqu6FbFOgUDwRTLOxZOd2v27qExcz6MTva/bxmIwEaRZBlgoPl6CKzwU90rLIC01JtSLlpLoMtCqVI98eNtNFJ7rJH31XKKlxeQZzJjLctlxMpQt2xYQ4QXEB2D+oIa+lOzPEDzXxhc7zgEaSxrwXbeV27KAnnwKi8OZbddxvDaZrXele6Ip7Rw/PoBm3qhYX5eeUksg9yzVuoXEQCVlxyczb5aWSI9J/d5cQrIjRoSGo4VmySxykvqoPvABZ5wZLFNLObu/jLgVs5GU7eOgSUVKRgqTVy1FddNZfg7MBjNhKQkosFN+vJyYGYtpq9HRNmRiq6LeISfso7+yz38Vd8/3iIvmJmyaTLwdDpDJgH5MJhuRkYHD83EYL5JvS2BGwpCAvDF/egfFkBjqorp0PwnTtjIzxkJddc2wCB1NX2MeFySL2bos1h1h8ZnIzOw+aou6UEnP8npZGMuezEDrDda81yiN2kqOVvYpkUfzGbYfDeO+e6cxeUh1+PozOuhjN+qRxq78fF7IbPch6bZ1JE8MQgpkp5uoqHQRk5VN9gy3icsSTjDhYyON/TXs29tJ1gMxyOV9tNfXYBgc23RP/TnqwtawedqoZV9TA61BAXTodJixU93gwDe+Bl0XgJFKqxxV7SnePmsm885NaMcGcQUCwVeIcS2e+qs/4f2aSWz+ZsIVP8yvbOOgyQgx6TJwNFPe6MOa+Vr3kp69mMKzgUz1A2eVAYk6dThXyNruIilniucmPolZE/ewvyyejYsGqKi1EpHsj0SVxZ1b5FxJzl0fX/Q4zTT1RzHFo4mcBiOyCdOoKepg6vKMkWWo/kbq5Yls9B25rTmajEhiUoeFhK28EEvakmHhBJ0YWoKIjRx1K5RFkznFTsGJCygmb2ZreD9FO9+lllRivJRMnL6C0KqPeOWtk6x+cgM3fz9TEBvcxnFdBPNDC8hzzuWOlCgGbTL8lO7oxUBJMflZi5gxXcWMUTU7m8wEayLpKCvClpqFRqbAUnyM3pAVJMgB+ig5to8Szb1MSfD3XG836E8vOV7mYxwulqBJbWdAHoQmMQi5XAJ0cOLlg4Rt24LWC9BqmXLJLPuqi+j08abGHEp8iImeWh06oKncikRbSeHBsxQMzmfrygnD57+ryUjI5AUESZo5d7AeH41HFDraKK9Wsmh9NhZDB5rU4Js+Czgt1Oqa6XPCxUJPWXsJh6qDWGDXeD7YBmgpKYOcu4gfTs3roezIAcq90pnnDeBDcHQMwT4qFKODh1ot0y7psrW6lmDtPcRO9EEhq6C0KJtlqVr3/A16zmlnkTU5gqzJNz89gUDw5Wb8Pm3XV8XHH9SRsWkJV3xJ/FVtzBg6I1EHAK3N2KLUI7lQJgN9ag1KoNXQS7hmKC4jwT8qyi1I7GYK9+6mQDqXOzdPQ5M0jeT2A7y3vwC9VYa34vMK/X/B4+w20hqgIczzZ4uhF5WPjNhsX+pLOnB6yp36enpi48aIGbO+k0iNJ0/I3sjRiz4k2c9yss7qrudowijRoB511Tq6TdRbApi8MIfJId0Uvr+bWu0W7lsXQ+PBfFrsElRJq7h3Ww6xn5NLJREZhFbv5d0DTWQu0+Lj1UNNYS3dntQek9FKtPpSmTZAQwPExkgJ9WvmTHEPICVK1UxuSY/bpPU8+QOL2TwvekSo37A/+yjJPUdnWBpxxh3sKR9APmCk2tgHAwb0MjVB3Rbsl5tgTzm5dSCxhTE31QtrzFRma7VotcE4BycyY4aW7KX38fVRwgmcNBnsxKh9oUdPaYsvyVotWq2WSYo2OsPiCaQTQ1MgGvXNeN+DNIDoiUmEOtvo8Tzo1mboYUK6RzgNmiitkDB96/0snzA0SjvGcwU4J6agjosnWAoDHQ3UNOqpqdSh03l+SvPZ89pOisfkalmprvYlOcEXhUICJj1trh5qPXUuFtajjApDIBCMD8apeOqlfO9umjI3seiKOSCfYdNjoEmlIRLo0TfSN9g+/OF74UI9gZoIwIbR5I06YnTFAToq8zi47xRNISkk+Fk8H8DVmLod4Gwjd/sL/Gn7TvYezqdh6I7sbObUa/+P3/zpOKbrmeoXPE6n0YgVKxU6HTpdCQWNPiSlRRHoF479/B4Ku92tm+qbiI6PHNVfL4YmPzSR7t+rTxYRunwN8+dlM/DJi/z9VBMDzQasUW6xN4RMFUlCTDBeXZXsf+8IPdNvZ116EFJFPPNmwqHtOzhT3YlveNjns1QEgA9xkX1UeU8mwx8gDP/Oj9hXage6MTb7e+YxCmcjtf0TSVSCJCwIS14hFsDXV0F1dQMu7FTmGcm4bRpBo0TejfrTVnsGY7CWSE0MmamzmBgMNYfe55jOTE+zkc4oDaGm8xyt6R8zTJfdzOmPKomamU1GhgaZwYBcE+2OSPYaaFJquHRqblrQmyPRhIHL1IwzRj3s7xZDG+HqYLf4HdR8Tk+gSfFRKWjXXcTYL0UqlRKeNZsklft3aacJe0wiwaN8aW9vhklzSe5vwdtzguTKMNSxE5nkEXparRZt2nRuu28TGaOfUuiroUaRRrKvnbY6HRd1VtRxIxG0fp8AbPUVdH8eUxMIBF96xuWyXU/ZXvaYs7lng+aKDvgsG6fRgFOzADlOavQyspeme3IcHFQadCSrZeBqQO9Us0gK4KTHVI++rRdpaAZL1mbS0ydFqVSM5FRotWQBOHMwV5Zg9Ekjbij51GbB1DKAKiXiupaevuhxthh7SJ41HW004KqmokDtiRSp8Ff1Yx0AsNLQoCI+Z5R2dxkxODQslHWjL9QxmL2SacEyIIr5qzL4/aFG2uRGAjQLxk7QZcNUmk9xWSnNoXOY0dNA+VBej9NFgHKA2sN/5tD7gSRPXcqKhYnXseXB5XG0nuVAcwwZrUVU2LSkekNwzFSSo7zAWYvepWHZJY/OO+rK6Jw4myAAH198uox0AwFeCiKjwqDlHJVhS1gdPHZwN+TPvhry9LHMCj7HB35qpGoV6YaDvDGwhDuXxDN45jCBmkXIE/uxvrif2ofWkaAAe0spn7z3HvUpD/Mdf7fCMRjbkKka3blS5jK6pIlUl+ZTfbqUwDVbmRfl+e/o1WPw0zBbCi16Awy0oNO1Ag7qq7xRzwFMBlqj4z+VvH3jNGGwpjE3JxPNpUcOnSM6ZuzyoCIkDjVQbxwgerY766+r5gLFgyGEjP4ntxmpsCSyamH8sAC019Tjl70KPxR4axLxlwzgHZxGSgAwYOLU+V6CpkV9TkvtAoHgy874E0/dxez5qJWZ924k6kp7w1yDTYuhnfAJwYCDhNV3ohj+Ni0jeelG96/tRqwh8cNixydsAimREmgt4liehIigS91vw1DRysQVS0lImc6YQJCvlk3f13K9fLHj7EPf5E3MfM+frUasYQmeSJGUhBV34R0A2OuocU1g9egnF1uMtAeF4DD3E5w5nZhRukoWN5O7VijozNOhXjS0+ZGDHrOB5vY+vDQzmdVbw8fKFLTaUZsjGQ5wSjWT++7cRHdjKzKNelg4dZ59g79XhDB/+WIyI649FOLqqeJInoR5KxfS9sFvqWhwkZosIShzIdkAzUa6IhMZu0mBnYpiO1nLPLLBy5+E2RlEAtJJ6/i6zEbRMTkz54desoXCjfizl8ZqJ5NzkujYdxh1lgpsDZwoULLyNi1KnOj0g8QsVIBXDLHKtzhftYaENBmK8CQmhkXinx7l6bALgzmSKcu1pEjBbD7NhGmz0CZI0KaN3RDNaTTQq5mOkl6q2qKYvTqVFB8AM72GTOK9ocdoQKmeM2aON3oeALAY0Tv6CC8spGXsaNBX+xI/73KVujB2BKAJcts1ldWiWD53THJ3d34B5eqFoyKV3VysVTFjtbtEJpcji4vE8kk+rTlRlO45jmvenayMu9JGJwKB4KvGOFu2s3Jh9z6sszeRE3kl5XQtNv0YDN7ERAPIUCgur0HtBiPy6CFpIUUmc9827MYy6r0mjCwTDP1obBhskWg+tWWCi+ZTr/K73/yZ0y2XHrsaX/A4XUb0Tg1qj9tsTUa8o0eklTIgAC9goLaa7oRERm+v2W804JuQTGhUGMpPXZXBqNXdGDrCPDc993yUEXEkalOID5Jh0DvRqMfuKmk1NBGYEIscBcGxagJGtavSzibDeZEdr3xMjZNrwtVTT975frKWTydcLiUgSIXrErnTazTip44aW7GjkJqwHDKGUsqkCczJiXE/8eglx1FbBmlTCZM66OsblYV0Q/70JSY9iSCpBUNTIOpwC7qzJpKXzyZCDmDG0BaJOhRASXh0EtERHsd0XeRMnYb4cE8HjiaMxKCRAtgxGhTEqD2PFFyyg3aroYlwTSTgR9amDR7hBBDB1KUZBOHCYOgjRjP2+dEbOQ9DDBgN9AaHcOleotBBh1yD5nJazGHE6BVDNABtNPVFohkTynVi0EuI1Yz877uaS7AmzRo+DwBIwtGGlvOX5/fBwi0sFMJJIBhXjKvIk6VgN/t757BtTsQVVeO12OAyoO/wItzzBNKVaCvrJWLRpz/BTc1tyHz1n35svKkcV8y6y+TmDNJtseAKSCPqszasvpXjbNFjcroweCq0ldqIXu6x6mmitLodmY+DqmOtpG8eLTBcGPT9aGZ9etHD3l6LrsZMn7WGsoApzP+UBYAZfbMUWbMOXfPoYQ4Sve7yl7jMP4GFd2zE8koZjkH4rIQoh6URnUnO5HkZ+Hn0UmDiCmbGAM5O6ssM9PsoMJcMEHPb6Ma6KSuWMWOKi6qSEj79kpRe6ut6iJtQxvkLZzlwQcltj9xBmj836E/PppV2PY1ONak9dpwzZxBGK+Xn6rG5DFQo45jrmUP8sq8RL/UIoqZGmjQTiR7Sg816zFI5ep0OaKOsQ8aEWh1lPXWcODvAkvvXkegH0EdjgxcxUy7zZaOvlaqaJmxYKWqMYvq6mzsPozEb2kiefTvZCZesw7aeoFAfTTCjNrIcwmTAHpnp7sZmxNg7SLhOR+ewgZUSazg5QxrPZaGyVc3cjKFMu0Gs+lIulunpVU1ny5oajux6jbZJ6STGRRMRFEBgSBC+V9vKXyAQ/J9n3Ignl+Ucuw/aWPCN2YRdQRVdi83/Z+++w6K60geOf+/QBaQjRcEGDCD2XrD33laTmKwxaizJxmQTUzfBZNNM1Vg20V+asUWNSSyJGhv2aERFFBRpMrRRQRCQMjO/PxiaAZ1RErPL+3ken8eZe+495xZm3nnPOfcCcCWL/ODOjFQ3vc2dqotJyi/G/ncTcHLIKgikR381/rd8wF4puITap6bHnVjRcthTPHubJv0V2lmcoyOgZ0/UzayBHI5Fe+Htalxo702QXxbfr4+iQY+xdKk28OUa2YZAWtYwWcnatRmtbIr45SdPBg8OqiHLAORfpTSoJ73UVW8ncZX8S8H4OtW642AbwOhZAbcpUIWjD6HO1Q+EfdOWxi40J/xaFnP6py0kNenLhCpDbfJTNTi274Bng2Ls/Rpi42CH5S0nIzS08j/tB1S+f/fHEwyZV9GrW+LqXJ6pcidQnc3O75PpMjC0YsalUiWwUAKH8lSTyltPXM/MpUW3Eaiblx31yvtHqgmuOo9fn0GOVShhNQX2du60DChi9+pD2IVPpHlNf1dmnIeCtHNcyCoGSkmJL6a04WlOXa9eRp8Wy40iC6IOnOJoTAOGPzoUf+NO5aTn0qhp2YWm12Ri074boeoqF8nNaC4kulCefLuRloe7uhGFmkQu3yiksLAES1d/Og1oTdlE0yCaBV4h/uxpzh0/SKq6N+GudfloJSHEX5GSk5NzT0+wTEpKok2bNnXVnj+MoTCTeK0NLf1qfzSHKWWEqXTodBZl94IUdUCOJwDF+eSWWuFgvCP4vTAYDCi3PltGCCFMUG8yT4pdIwL87r2MMJV80dctOZ4AWNvTsI7uOSGBkxDibtWzAeNCCCGEEPdGgichhBBCCDNI8CSEEEIIYQYJnoQQQgghzCDBkxBCCCGEGSR4EkIIIYQwgwRPQgghhBBmkOBJCCGEEMIM9eYmmXUjlk0R64gOm0zEeHUtRTaxYP3ZO27JYGjF5IjxqGM3EbEui35zZxPucUshbSTLN8KE2eHcukgIIYQQ90c9DZ5i2RQRQ2jEeGoJgWqgJXL5OqLDwgiLXsem0Ahqi58MrSZVCa60RJZFQFWCo7L6AVCPJyJCS+TyCJaHzmX27yIoIYQQQvyV1LvgSRu5nGV7szDQitA7Fy9fi8jlS9njacw4hXuwfOlyImvKFt0VD8JnRxAOxG6KYP3Z6o+NWLZgLwAGg2fNGSohhBBC/GnqzYOBoSwwWcdkIsKzWL5US1+TMk+1dNVpI1m+NIbQW4MZM7vtKG9TTWks6bYTQggh/nLqVeZJPT6CCABtlknly7NUrSZHEHFrbOMRzuwITzZFRBBxS2BlTredenwEcyOXE7E8i7kSJAkhhBB/eTLbrhaxmyJYqu3La6+9VmVsUyybIpYTqS1/rWZ8RARzPfYSEbGJ2LusyyN8NhESOAkhhBD/FepV5skcFVkqE3iEzyYivPK1cnY9C27tuVu2gL1VXtY05qo803Wr8jFPAAbPvpKhEkIIIe4jCZ7qmDYrC8++c6rMmrvDbDuoMrZpNq9VBGFlg9S1fWuf1SeEEEKIP5902/0BPD3Nywtpz8dAaDDVx50vJSZ0LuPVZV2Im+62T1AIIYQQdUqCpzql5XwMeLiZv05ocJXQKXYT65hckb1Sj5+Lx96qY62EEEIIcb9I8FSXtOeJIZRgcxJPt6yjjVxORExo5Ww9bSTLI5ayNyuLPRsjkfhJCCGEuL/q55gnj3Bmmzoa3Aza8zF49p1d62DuqgPCDWGTGE95l90E4zqxRO7JRFEqB5wbPPsyNyICD+P6GyOD5S7kQgghxH1Ur26SKYQQQghxr6TbTgghhBDCDBI8CSGEEEKYQYInIYQQQggzSPAkhBBCCGEGCZ6EEEIIIcwgwZMQQgghhBkkeBJCCCGEMIMET0IIIYQQZpDg6R7knIvhq1UXSLx5v1sihBBCiD+LBE93S5fA6wM3MPWRtTywNOt+t0YIIYQQfxIJnu6WygYXVwVQ4e5i9YdWdWHVRob1XoL6yRiK/9CaAIrZMdcXW1s/XjhU+ofXJoQQQvy3kYjkkMEAACAASURBVODpbim+PL/ncQ4cmsU3j7r8oVVlxyXxU+RV4rJ13NODCE1RfJCtW3ryygtN2LD1V/R/dH1CCCHEf5l6FDzFMkOJQFG+ZuG3O5nU7X3cnBfS/bEjnM4vL5PMC34RKMoCFP9tHLuZxbp5K1G7v45is4HtJQB6vn+0rIyN56f06rEMl5kx1WrK+vprLJQIFNfv2F1ifDNqF2olAqXBGr7LBSji1xU/8sCAJQT4vImj+3u07v8t7+7MpiLfcyGSzkoEXd80NnD1ZmyVBSjKV3xzrUqFujz2L9rEwLCFODu9TVD4Wt7efu2uslTFh7eyueMI5kwag9OGbZy8JXo6EaGm+weHOLR4Jr1buuLauBNTPj1DtWFfujR+eXcqvQLccXRuTOte43l25TGy9AClbJvpQNi/T9VQ+xleD2nE/IMVGyJtz0Ie6t4cNyd31P1n8emJnGprJHzSG0VRsH18GwUXNvD00BA8Gyg0femIGXt9k/jPv2PJ8I+Y3+I15vq9xUvDVvPDL9fQVZQ5xwrHl5jp+CU7du3ns4Hv8KT3G7zy4F4u5VbZVF4aB1/5igVhrzO30evM776cZQuOk6DVARo2tX2JmY6L+Smheguyli/lcaeXeWOJsQtYl8u5Jd/ybsd/84T368wfsIrvf75KScUaiawNeInHnV5mZtAWLt7M4tCz/+F5v1eY6bqWqJKqW8/n4Gtd8Wnclw+j/vjcpRBC/K+rR8FTuUSen3YGracT7roCjny+k+lLM4zLGtBmQjPa2BsgJZnFj63jgUVpJObpIdiVplYACo27tGL69FBGhNV8+DwHBzNYBWQnc/Rc2XtJRxKJQ8FmZDD9GgJYY5WZwuHrtrTp24KhoSri95zjhVHr+eyScUOO7gyd3opRbS3KXrfwYdr0UKbPCaGta3ltxRx+9QsGzIvmSLELQ4Z7YXM2jpeGf8H83YVmHptSjmzZRPtRg3ANHsxYu2/ZevL3ua5zC2fwYdEUVp28zJkPW7H7H/9mS5WYJmfzc4z53JZnfr5IpuY0Py56BK/8HFQqAEsCQ9oQm5BMMZD59TgcHfuw9BJQnELixXaoWxr37MwHjH30CF3f30dCahzfzbVi2ah5bMmurKv5E3so+XkuhnNreXzWGpq9uJ2Nz7XCw9nJjP22wSIrmYQcO3zDAwgKUpF9IIZtk9aw+5YgR1FdZNOkA6Q3dKZBSSHabb+wYV15JFvMmVc/Z9UnF0gvdSN4hD9u+qucWXSYmAwD4IJHIEA++dkGTj31Ko87vcySjTe5cS0fgx48/V2AYuJeX8GiF0+RXOyGerA3lufPs33iCtbuLT+n9viNbY6HjQHSEtg1exVffZrK9Rt6CHDDo1pPcgnXUlNIT09Ec126YoUQ4l7Vw+BJxbj/PM6eH2bw3b/cATjx7TniAPDggQ/7MMQVQMuarba8eehxPhkIBLniD4BCx1kTWLFiAs8NqmWsU6MgxgxUgFz2H80BbnJkXzoAI0cH4mzcTruX55J8fDobV0/m232P8HoXoCiTgyeLyrbjHcKCFRN4abht2euuXVi2YgIrlnaiVXldV6J5d+E1SlX+LI2cwbo1j3JwRRA25LF0SQxXzTk0ul/ZuimAkQMbAWEMHqNiw/ao3xXL7/MqXzwXjl9DexoPH0Hv4gRSMiuXF+Rkk69YYu/oSAN7N5q2H82zTw3G3bi8mboNNvHJpKHn7G+nado0lVPni0CTTLxrCIFeAMXs++x99HPf5Mnufjg5uhEy7jXmdVjNut15lZUpFliqFDi4Heau5B/hTWkc0p9hYR5m7LhCs+fn8eGhWTz1xRT+sXMaw9uDUprOxajqUykNehWB78/hlU3TGDuy7L2MpPJoroCsiwUAOA3swaTFj/D80fm8cezvDAmzBBrg0aIBkM+NnOto43UoFpCVks2NK/lAQ9z9rODqabYtuopB1ZRJv8zmiS9n8MqSYCzI5dDyaMr23pMeC/sT6gSKKotTP9sxdNcTTOwNBLhVHOsyzoz69ALarBje69PAjOMihBCiJpb3uwF/Pgua+TkCEKBuBFyF+FzSgKBbSnb512he7N4IZWsEM82qoyHDxvjCDg2Rh1MomGbLwd0GsGzKqIH2xjJ6NJGHeOfDaH46eo3krFJKUQAoKCwBbEyrKlrD/lKAFKZ6LWBqxQIForJIANxMbLXu161s8B/Nft+y9TsMGUverO1Ev9qesCrlVK5ONCx/YWODHTr0Vbr3fCa9w6cHH2ZiQBDtR4xl5JjJTBnTEU9jrGkZFEKbc/GkkEz0iRY89JA9689eAMcEzrVTU5Z4SiXmpJaYdYPwW1IZ49+8VkrI4CuAY/XGu07ikZFle9p80scsMHGfy+i5djCSHxedJubEVXKvloKq7FwUFd6aqbHAK9AVC8DWUQUYQF+enXOi7dRgth88T85XG3h5w8/4Dw6m86O96BtQVsKjmTuK6jI3stPIPO9Es+4GUpKzyMspAdzwbAJEXyZBB4oqmTUBL7Om4sArGM5kkfn7vcfn+XGM6eqFsvkt+te0i5YOuJt6IQghhLitehg8VdKXGke06Aw1DsQOU3sYwxnzNR4WTDipRP6SQtRpa3ZeA9XwEAYbEyKlZ/YxckAkUaUKXh38mDjMFs3uOCIvm19jWdsdGfyYH02qru7gZcxymbaVE9s2kHz8Kl293yp7S1/ItSx/tp99hbBWt1+7GsfWzPwyigffiOLA7p9Z/e4gFq9fxN5vH6aZCvBT06ZkJ8lpZzmlacvjfaxYvug8yb4JWIaMxMvYHoMBevxrB2se9Ky2eSt719/X6eyGi7UZbaxCF72Hj0buIVOn0CCsKa0H2ZKz9zwpWeaeCwX3CVN4I+w8RzecJerHWC5uOkbyprNcWvUEs8Y44drUDZU+hbyLKRRrXQkM13HpQCoaHeDkirtx1wyAQd+QllP8canaDHsv7Guo2TfA8w7XqgGDQUG52wtaCCFEhXoYPBnIyysGLDgTVdaVRgdPY7ajDvkFM67nLiIPJrFqpRXxKAwZHUh5GJB2+BJRpQr4d2TzseF0RcsHfeKIvAylpdVHaTs2tAXy4UYxBdySkwr1oZflSbaVQuupo1jY0xowcCMrH5WnAyZ30hii2LbRlle2RzMroPzNEva80IbF28/xfKsQMw+ACocmHRg6tQNDO1vRLnQpPyY8zFMtAYtAQtpdIHnHGX5t24qPAhTanDjLjpALtFOXV96E4LauvHM+GQePUOzMrN0c2UfiyTIo4NuFOQdGEUgW2wadJyUL9Drz5huWJF0myyWQ/q+E0P/FHHaNWcjGyAJO70uDMU6o/F1xB/KOppDd0I2BrXWovrhMoj2gdi3LEgb70sziBBd0Co2njOXBHjaAgZvGc2p+jHiTI6+HM3SxLRF79jCvdT38sxdCiDpUDz9FS/ls2mdk9rQk6sfrgCWjp4XiB4CWtc/s42fj+N8DSzYx41gwEW+0wrdi/ZvsfX8ra+Ig45hxStOBo8yYcR77Pr34+KFGxnKuDB3XiHkHs/i//wPwZsyQyjyQR4AnXmjISD7NzFHZtLiaxvZjxs39EEf6tE54G8s2796MZlwhccsehk+Mp/G1KzSY8QhfTm4InmHMf/oQP72XzXtDl/DbcG9cr2nZv7eEv22dxZLBNeUpfs9wahsbCofxRbgvvlVGwo0YNphpH23jwvwQAk3aUj4nPn6R79wnMW1ga7xtrnLih70kuoXSsvzQ0AR16yss2nQYXYcFuLjpCCleww9HtYQ852MsY02/6U/j2+NFnuvvx2vD/NAlH2Hd97mMfmFiWQYLwKCjVG8ADOhLS9FZWGJhZnalYUsP7PQpFGhO8uX4bDyyU4k7Caggcct5cv7exbQMXnYc34z+miNZjjTp5oOLKptLB8CgtySoi/FsNnGjEXD+aColIQF4+pTgnHqWFDtQOrjiCuDZluFzDnDxk2vsG/cxyYN8sM/J5NIBHW03PMGjA+2BLA7N303M9bLNxv9nPStOhDL+tdb8Pi+XQ8zR37h+Vc/B6Fzmta4hcyeEEMJk9XDAuCWjH2hK0bkc8jzcmPDWJD57uPyrsYDTGxM5nV/27Ru34xwrt2aSW239UhL3nWXlyhi2RhuzEnGprFwZw/qoG9VKBg4LoSMGSkuB8BCGNKlcZtd/CNuWqunoqyf+SAZXQrux9+JUFv29Ea3budOoynZse/Zj44o2DAyF2J1JnLxuj8PNPMqGJtsQ/vY09i5py/AAHae2xrP7gkK3J3vwcFtbk4/Kme0byRrel/a3XBEu4QPpfXwTP8WbuiVbGncKoWDjPAYEN8Kn1TBePBbAwp/eY1jFQB2FoJB2bP9pJ+1Dg4AAgtvu5Oefw1AHVEY+Nh1eYMuWB8n5ZCyhPs3pOfUTLjm4YVVlGFLCkn5YDVlKccJbdLGyYvQXGZjLut9wnnovBC8vPdnH07kR3IOnT81gzN+88Wrrgcnz9lyaMfz9/nTqaE32sYvEHMjFplMwA1bMZOYDxmusgRuNmkLpTR00c8HF1xl3SiktUnBt6mL8NWND8BszmfdeBwKb60jbcYGLF1X4z+xJzzblecd8UjYnoC0qO145kWc5/lMmNc+v9KL/sF5gPZQR/SRwEkKIe6Xk5OTc030Xk5KSaNOmTV215w8UywxlHSux5p/7X+L98PvdHiH+LIV893c3piurSfpybOVgfyGEEHelHnbbCVHPGE5xdK8Hj60eLoGTEELUgXoUPCnYeDrQpoUHLUyfgibEfz9DGM8eOI69311ORxRCCFFNPeq2E0IIIYS4d/VwwLgQQgghxN2T4EkIIYQQwgwSPAkhhBBCmEGCJyGEEEIIM0jwJIQQQghhBgmehBBCCCHMIMFTudJMzp5IJO92N24wpYw5ii+y7YstxOVVqSJ+Hz9EZaGroyrMak5x8X2oVQghhPjvIsETACVo9n/HrsvFWNb6UNnbl7n66ya2x+VTEVfp4ti26hCZJYDBQE3x1rXfDqHxa08zx8r3spIv4+jticXtmpt5iHXbLxqfbWe6G6c38fWeFGoOkW4QtWYlv6T+fmnW8W3sTzKvtowzhzh5PpbY2FhiT2xn82EN2iTj6/J/506wddVW4mp+IJsQQgjxl1SP7jBeu+LUfWyO9mHkrCDszChTkBlPSnbZU2o1sencDL5MXKxx4Y3zJOob0iL+N347eAIGPMKwZlW2XnCOvRebMfohXyyLiym1tsaSm2RoHfD1vH17izJSsfTvTAMASog/HMkNV1/KHwOsuxpLrFV3xnb2rIyOixPYe1yhywNNsDIAtwaA+jQ0hUF0b/z7u1B7+tmzft1hAp/qj0PaBTS5VUPBQhKjUmk+aiRB9uXv5XP5rBaXyT1oqYKcI1EkePvg5JFHAysL4nfswKrPOEIcQR1y+30VQggh/mokeCpOYffmczQbNYuWtuaVsXP2wqehDY52V0g9EkCXTmp8jcuKTkXh3m4Y6mAb1MEdbtlgCUkHzuA+aCKNLCBt39cc9PgbE8OukmbwoY8KSnNjORJlSbveLXG4Ze10TSk+3ayMr7JIOK8j9LHKuhO2Hsa1k3uVtGIJl/cfxWbgBILsLrL1Gy2dH+hGSdR+8gJ6o3ZWQXoKmb7+VIvbinO4VuSIq2cgffpa0QgFg4sPvm4NcLCxKIu/rhwkUvGnv32V9QwZpN8A1YVYYgFNvAWNOyhci40mjZukWzenheYcv6akYt91EKHywDUhhBD/Rep5t10xibu+52KLUQxsbmN2GcXGgYZ2Vij5GjTFpVyt0iV1IrYIX++at1mSeoCdp9K5kn0TuElGlgthgSqyzp8jg2JSzsUQH3OWi6UNjNklKMlONm77FNGXdRRlnmb3qm84lKghs6FPlaDnGpor7vh5Vp7aYk0kW87b4OdsBVczue7lj6elCl/3QrbtjkMHXEtKwqWpX/ULIuMYq78/RQ4+hLX2QAVY2DniWB44AcVpqaiaNKFavkqbSl6LTnRQq1GrnTCoPPCyvkHymSwcW4UzqF9b1Go38q5a4SGBkxBCiP8y9TrzdPPSTn5ICGTc482o7ZGpppTRp6WhhPWitdrF+E42B4+64uNeQ+ESDb/G2NGycSMcHdM4E51GzA0rWl3OxnDjBi6tBxESYkXer6dw8/OqCGasHDxobGOJVfpOtjdsyxPq1lir22CI/5FTSiMuxRr7C/Ua4q186Vge3dxM5Mi5UjwcHHB0VCg6m46tT9eyZT5deNjFGQtyuRBnScu/VQ/2ctPTcA0Lx1nJ4Lfdydj6OpWNxdJdJe6SPX1GtSVHk41vsEu19fJTUigocSM2Ng+KE0m2a0Y/fTqHVI1pde0Yq3c5Mn60jiv2jfGo7eQIIYQQf1H1N/NUGM/PPybRamw/an3YvCllgCtp6ShFmVUGQp/kopUvPr8bWF5I4m+pNO7tTWGJD029mxPqa4mFX1vaBTShONuAj68VUEJKCjT2qXJ6rBrgYJvLr7tPYkk6R05cJt8AWs01mnXojFqtLvvnqEPx9ikbl6XPJi66kJBObtx08sNLBWmpJXj7Grv8bNzwdLaA7LNEq0IIqtY/qCddU0xjHzvIT+Wc1o4AYx2B1le57u6PE9fRpDvh61O+TinZybGcSreheSNjXF5kwJBxhrMJGgoa+WKpuYy1OhCHdA0GH+/fDb0SQggh/urqafBUQNxPW0hvPZY+NQyQNr0MQBEaTUPadFfXHMCUFlJYUlayOCsDy9DO+BemccXFF3cLC3SadKx9vIBcNNkN8XEG9Kkk3miMf9VxRBi4dnw/qbbeNO/SE+eLezlzvZg0zU30uXEVgdvp08k4GUecl+SCT4cQ3LI04OuNBTmkZTvj61x1u3o0J07j0L4VjlXfRktqViN83cGQmYG+sU9F5k2ruYqHjwvo0kkr9cWn4vBY4uBohXvHkfRrmcvJeGuCOg1j+py/0TI3HTtfD1JTSmna1A6tJgdXr1tHcwkhhBB/ffWy2y7//E9szWrLQ6N9az0AtytTkBVPyrVS46urnM+xoFli2eBogKL4BHTWvsTGZpByeBcxzqOYOU6NvWczmgAlMRosfdugABlpRXh3sgZdIukWPrRMOsbOI1FktRxH1V6/0sxfOarvSiuHA5R629NqzER0dmnsKgmhaxu1sayOmLPH8PUuu9GBlbMLVkCGJodGLZ2h5BzpVo3pRAnXUxPJtPChpU0MOy62ZEi/BlRTkIqmgS9dVaBN1UCJltjYK4CO5HgbfLoBmRquePvjVrWdl3/jUK4jzTw13DBYcfbQZhJse9PmpgehzZOJOeJKsKqYQrsAQu8wq1AIIYT4K6p/wdONs2zdfoXOU8bgVdvNlO5Qxs7ZG19HGxzsLFEoxrHIAVVzNd7WQKGGWMtJPNKyLHBRq9sx6Jb1MzQ38AqzB3LRXHHCxwXISKW4UWs8mjrRWu9D9yYulBjASgEKUziZ4EZ4VxXHVnvSyg4ssMPimoYrrj5VgpdM0nIaEVxtEPZN0tLt8OkBZKZyraiEyB25+LTrQojzNQ6sP4d3sD8Xk27g3cKhohtNn6ahwLcj9hQQf9WLrkODCbIFyKJA0xp/G8hP02Dv061K11seZ88odJ7kydWDhQR2bkdYo3aEAdAHzb7N2A8YjOrYRk669WP47RJ6QgghxF9UPeu2y+P0lh3kdR1Lj0a1RU53LqNY2+NoZ4miz+XirjVsOZPBtevGvjk7L9yv7+Dzb/ZwIae0hrXzSMtsSGNPQJdGmkXZ2KiifDtaqt0Ba7yaN8H60kWSDUBJNokplrTq1hKHfA3pDXwqBlkXazRY+vpUBi830khz8Kl+uwFDOppSH3ytIe9KHnY+aroM7EVwQy0HNu+hpOckhvYJRbdzFfvTKu9rfkWTjodvI6ABbcaONgZOAJ60798KZwxoNIU09q3MWOkzTnBRV8y5gxdIyGqAb3lDDQWkHN/DJe9B9GvSkBZ9umAReYjEurpTuxBCCPEnqleZp5yoLewq6MbUbp61Ro2mlAEo1p7lwKEELNUjmDbQvcpMPAvcO4xj8JUVfP3ZdSbPG0tg1QxLSSopeh+CLYA0DQWeodgAtOxOx8pCJCRosAkKAUtnmga5oAA6TQp6n34V7dJc1mLhlEL5RDsyzlPiM6T6rMArl7ni1gQXgLbjeZhitLGHOKKxQj1iMn72KqAB6kAdezOLwKcBUMjlFEsat6sheCy8QnxCOkXkEX3Zi44jyxfc4MxvJXR7YDzs/5I1GY0YdSWfIttcLqfmYhc8gHAHY8utW9Dzb9bY6OH2t1IXQggh/nrqTfBkyPmNLbuLCJ/WFfdaoiJTylCcQ2piCld0bnQdNQr7GstZ07T/WHpkRmF1y3JD1jUsggNoCKBXyL8UybbCaiPDUSggK6sBXfMM0FCpyCxpr0HLZuWjvXPILlHTrZsaf2Md15WrdHZxq7atgswbeAd6Q3E2ly9nceMmODbpzCC1VbVyXl0fYYydMYukzyDHKpSwmu7BZOdOy4Aidq8+hF34RJob685PjMOiU1+a2VjBoGnMbn6GqKM/8ltWPjpFwXBoHyUlxRQXl1B8E7y6jmC4B9hL8CSEEOK/jJKTk3NPnSdJSUm0adOmrtrzhzEUZhKvtaGln3Ot0+NNKSOEEEKI+q3eZJ4Uu0YE+N17GSGEEELUb/VswLgQQgghxL2R4EkIIYQQwgwSPAkhhBBCmEGCJyGEEEIIM0jwJIQQQghhBgmehBBCCCHMIMGTEEIIIYQZJHgSQgghhDBDvblJZt2IZVPEOqLDJhMxXl1LkU0sWH/2jlsyGFoxOWI86thNRKzLot/c2YR73FJIG8nyjTBhdji3LhJCCCHE/VFPg6dYNkXEEBoxnlpCoBpoiVy+juiwMMKi17EpNILa4idDq0lVgistkWURUJXgqKx+ANTjiYjQErk8guWhc5n9uwhKCCGEEH8l9S540kYuZ9neLAy0ItT0tYhcvpQ9nsaMU7gHy5cuJ7KmbNFd8SB8dgThQOymCNafrf5kvWUL9gJgMHjWnKESQgghxJ+m3jwYGMoCk3VMJiI8i+VLtfQ1KfNUS1edNpLlS2MIvTWYMbPbjvI21ZTGkm47IYQQ4i+nXmWe1OMjiADQZplUvjxL1WpyBBG3xjYe4cyO8GRTRAQRtwRW5nTbqcdHMDdyORHLs5grQZIQQgjxlyez7WoRuymCpdq+vPbaa1XGNsWyKWI5kdry12rGR0Qw12MvERGbiL3LujzCZxMhgZMQQgjxX6FeZZ7MUZGlMoFH+GwiwitfK2fXs+DWnrtlC9hb5WVNY67KM123Kh/zBGDw7CsZKiGEEOI+kuCpjmmzsvDsO6fKrLk7zLaDKmObZvNaRRBWNkhd27f2WX1CCCGE+PNJt90fwNPTvLyQ9nwMhAZTfdz5UmJC5zJeXdaFuOlu+wSFEEIIUackeKpTWs7HgIeb+euEBlcJnWI3sY7JFdkr9fi5eOytOtZKCCGEEPeLBE91SXueGEIJNifxdMs62sjlRMSEVs7W00ayPGIpe7Oy2LMxEomfhBBCiPurfo558ghntqmjwc2gPR+DZ9/ZtQ7mrjog3BA2ifGUd9lNMK4TS+SeTBSlcsC5wbMvcyMi8DCuvzEyWO5CLoQQQtxH9eommUIIIYQQ90q67YQQQgghzCDBkxBCCCGEGSR4EkIIIYQwgwRPQgghhBBmkOBJCCGEEMIMEjwJIYQQQphBgichhBBCCDNI8CSEEEIIYQYJnu5BzrkYvlp1gcSb97slQpjIUMj17EJ097sdQtyBrriUe7qD819M/vlo9q+OI0u+L/4nSPB0t3QJvD5wA1MfWcsDS7Pud2v+dNpNU2ncfA478u53S4RZincw17U3iy/c74bUDbkO/3dFP7uAOX5v88YHKfe7KfdOd4nvRq5lzZyvWfZp5v1ujagDEjzdLZUNLq4KoMLdxeoPrerCqo0M670E9ZMxFP+RFeVvYrLSjvfO37morXsL2oQ1xc36HurL+o5Z7R7nu5y738Spf4ehKAqKYoGDe1NCe0xg/oqjaP+XfrL+4XL47f+eYmhrX1xd/Wg36p+sPXvj/jbJxGujTq5D8RdlQH/9Ble1VT71SnOIXryOt9v/myd83uCFgd/w/c9XKL1/jSRtzToWDvyI55+OpqS2QipbGjgrGPQWODj/sd8X4s9RPx8MXBcUX57f8zh9L1rQqpvLH1pVdlwSP0XmQxPdXyaN7dj7X2zrfY8bKbnCxVOZ9DJ5p/K5sPs0Nn2741817H/wW/K/GotlUS6aM+uZP2kg0yxj2PKo3z02sH5I/Pxhhi1pyvJ1p9noryNuw/NMGjQTm6g1jGt0nxpl4rVRJ9fhnZoSf5CDFu3p26zBH1uRuIMizv1rBUuWZIOPN6H9VKRsP8f2iSlc2/gU0wbb35dW5V9I4tKveRia3KYzXPFl9M9PEBpvQZMurn9e48Qfph5lnmKZoUSgKF+z8NudTOr2Pm7OC+n+2BFO55eXSeYFvwgUZQGK/zaO3cxi3byVqN1fR7HZwPYSAD3fP1pWxsbzU3r1WIbLzJhqNWV9/TUWSgSK63fsLv8pErULtRKB0mAN3+UCFPHrih95YMASAnzexNH9PVr3/5Z3d2ZX/oq6EElnJYKubxobuHoztsoCFOUrvrlWpUJdHvsXbWJg2EKcnd4mKHwtb2+/9sdkqaLfIUxRjNkeb144VEMZXRq/vDuVXgHuODo3pnWv8Ty78hhZ+vIC53mnnYLS+HH28ANTXMu25zpvd63VFib+zNsTOtB93uecTLtloaLCwtISa3tXmnWbySODbrLraDQV1aEjbc9CHureHDcnd9T9Z/Hpid+nNIqTtvPvh3rR0tOZRkFdGffsF5y8WvXbO5+zq59heGtfnJ19aDPiadaey69cHPksbg9+wOq5XWjkpmbqmkg2zO6Ct3swD61O+g9QIQAAIABJREFUNL2MiW0+EaGm+weHOLR4Jr1buuLauBNTPj1DtSEVhiz2LZxMJ183vEP68+SXp6nWw6U7xNKIfQyPeJtxIe7Y2zei/dSFvNxxA6//35lqddnM/qlyvaLvmaJ05qNq3X8mHOe6ujZMuQ7vdL5MOoYGLh9fwZxOnXjog92kFtVUjykSWRvwEo87vczMoC1cvJnFoWf/w/N+rzDTdS1R5Z8TulzOLfmWdzv+mye8X2f+gFV8//PV32U0Cs6cYN2UT5jf9DWeVH/Am3/fysHT+ZU/rm5qOfHWKt5o/Tpzvd/ghSGr2bLrWsVny9lnI5jpuIgv3/mWBUFv8MLUHfz8/KfMb/o6r8w6yVUTy5jW5nOscHyJmY5fsmPXfj4b+A5Per/BKw/u5VJu5T7p0+P47sGPmNf4dZ4f+R2/xt8SOaee4Idl2RhwYdC6Ofzjmzk89ZIniiqfo28eJb1aXRF8c7BstVP/eIXHnV5m3gvxldsy5TjnpXHwla9YEPY6cxu9zvzuy1m24DgJWmOQdHEvrzm+xPsflf1FKZs28ITTy8x0XMnB7Iq94vjMsvM+t8USPhq8iKfnRv/+8rjD+TL1GN6xzRXyOfhaV3wa9+XDqD+0P+N/Vj0Knsol8vy0M2g9nXDXFXDk851MX5phXNaANhOa0cbeACnJLH5sHQ8sSiMxTw/BrjS1AlBo3KUV06eHMiKs5sPnOTiYwSogO5mj58reSzqSSBwKNiOD6dcQwBqrzBQOX7elTd8WDA1VEb/nHC+MWs9nl4wbcnRn6PRWjGprUfa6hQ/TpocyfU4IbSt+vBRz+NUvGDAvmiPFLgwZ7oXN2TheGv4F83cX1v3hC5vPqZISSkoO8IxXzUVyNj/HmM9teebni2RqTvPjokfwys9BVXG4gpl/ooSS5OX0YxRfa0soKSlB+2H/32+sKJXdHz5E507zONnxQ47/upKxjWtrnI6c2DVs3NOAwd3bVFzcxWc+YOyjR+j6/j4SUuP4bq4Vy0bNY0t2lVVz9/DswCnsafEyOy6kEvvLUh5qVES+hVK5XzvmM+zZiwz+zzGSkn7lk/DzPDHsBfZU7eH6cR3Rw9Zxcnknvp3+Dw4PXsPJlT3Z9p8fSTSjjEltBs4tnMGHRVNYdfIyZz5sxe5//JstVeKV1K+mM3JxMY9tPkvckc8ZlRnJwaobiD3Ersv96NfLocqbnvQe1IPTvxwktbZDXQNT2lxn14Yp16Ep5+uOx1Ch+QNfceLYQoIOzKJ9t0dZdii99u6ZWtnjN7Y5HjYGSEtg1+xVfPVpKtdv6CHADQ8rgGLiXl/BohdPkVzshnqwN5bnz7N94grW7q38Wy45s5sPBnzHnh8y0Qc0I6iNNdnbzhKXYaDsas3nxNMrWPFuLJpiVwLDnbh5JIYt4z5j9e6Ciu0oqiyOfJGJlX0J2Zsj+emgDhv9TbJWH+JEkqllTGtz2bYusmnSAdIbOtOgpBDttl/YsM74K1CfxY6/r2LHtisUNXTDxzKR6APVg6eCY5dI0gM2/gS0tQAUmnRtio3eAFGXiDN56KkpbS7mzKufs+qTC6SXuhE8wh83/VXOLDpMTIaxXY4ehD3cmqDgss9nQ+MmtH8ojE6PtcK/ojNCwbVTazo+FEZAYG1ft6adrzseQ1PaXKGEa6kppKcnorl+Pzs9/3vVw+BJxbj/PM6eH2bw3b/cATjx7TniAPDggQ/7MMQVQMuarba8eehxPhkIBLniD4BCx1kTWLFiAs8NqqXvulEQYwYqQC77j+YANzmyr+x30cjRgTgbt9Pu5bkkH5/OxtWT+XbfI7zeBSjK5OBJ489b7xAWrJjAS8Nty1537cKyFRNYsbQTrcrruhLNuwuvUaryZ2nkDNateZSDK4KwIY+lS2Iqfx3WmbIsj6WlglJLiYKcbPIVS+wdHWlg70bT9qN59qnBuFfdioUllhYqQCn7v6UlFtWuRj1ZR5YzrVt7Ht8XyFtHfmPDC8NoZldDhd89ToCfHz6ujjQfuxaXF3bx+cPlEVYx+z57H/3cN3myux9Ojm6EjHuNeR1Ws253ZQ4mfeOHLLV9io9eG0ILZwdcmnRg/HOz6OVcXiKH7StX4jh7AU92b4yzc2PCn/kXj+pX8PWuKt/GIX9j2vBm+Pr64tRiAtPGtMC7sS9uV3LINbmMaW0GyO/zKl88F45fQ3saDx9B7+IEUirGoyaw4bMtBD/1JrM6e9PQyZ+Bzz/J0KobyNBwydoLD+dqm8Xd0xuSNGRgKtPaXDfXBtz5OjTxfN3xGJaxbzGcV7+PIvLlxmx5qC3hc1bw2zVzOtE96bGwP6FOZQHJqZ/tGLrrCSb2BgLcyvb/6mm2LbqKQdWUSb/M5okvZ/DKkmAsyOXQ8mhjxjCfX9/dR2qRgu2Ecby2cypPrH+Sty4+ycODjQFw4m/89M0NDHp3hm+ew1Pr5zD7H84oqjwOL4qiai6wzTuPM32mFwa9DyPWzmB4/7I6bmSbWMakNpcx6FUEvj+HVzZNY+zIsvcykowVRZ9k3xE9Br0Hw76bzVObn2TKxOpnNjf9OqgUcLOjQfmihnaUfSRcJ8fUcdgmtbmArItlgYvTwB5MWvwIzx+dzxvH/s6QMONoF69WTFg2mZFDjN25XboybdlkZnzclSYVlSm0mDGZGcsmM7x/LQPzzDhftz2GprS5gjOjPr2ANiuG9/pId/TdqIdjnixo5ucIQIC6EXAV4nNJA4JuKdnlX6N5sXsjlK0RzDSrjoYMG+MLOzREHk6hYJotB3cbwLIpowaW98vr0UQe4p0Po/np6DWSs0opNX4NFBSWADamVRWtYX8pQApTvRYwtWKBAlFZJABuZrX93vlMeodPDz7MxIAg2o8Yy8gxk5kypiOeZo2TvMGuD+awr/VGDn0xHu/aIjWA4e9xZFkvds7pzJu+z/LmzM5Ujn5IJeaklph1g/BbUvkNfPNaKSGDrwBl10LMqYNYdp9NmEVtlSQSd6aYsAktK7+sLVsQGFLE/ospQMjtd8dguPN4tYoyprUZQOXqRMPyFzY22KFDX94FZogn7qSKNi+1vG2dpSgotxxfRVFAb0KbK5jW5rq5Nkxh+vm67TGsxgH1+DfY2jGYyd0fYsmgR/hijIl/p7fweX4cY7p6oWx+i4qc2tnLJOhAUSWzJuBl1lQ0UMFwJotMwJE0Lu3XAQrNBwbhaNw5a5fKK153Lq0sY2jXmKbBKkBFs44+wHUMxzPQVGmHyrKs67MsUKXiOjAYTCxjUpvLWeAV6IoFYOuoAgygL6voZryWHJUC9k1orlYB1tg4KGVlyvdLV+NJqXDrNVwrk9rsRNupwWw/eJ6crzbw8oaf8R8cTOdHe9E3wMR6TGTK+ar8bVP7McTcNls64P5nfzn8D6mHwVMlfamxH1hX85dEmNqj1uzKnTQeFkw4qUT+kkLUaWt2XgPV8BAGe5QtLz2zj5EDIokqVfDq4MfEYbZodscRedn8Gsva7sjgx/xoUnV1By+ca17lj+XYmplfRvHgG1Ec2P0zq98dxOL1i9j77cM0MznX6cDAfy5h15zZhI87z6IPnmFY81p+Idk0xN2jJY+8/hL/aTufxdMO82Lr8l95BgwG6PGvHax50LPaalb2lQM39Xod6A3oqS0da8CgNwYVt6jpvXtjWpvvTIXKEgy3a5+nF82Lf0WbA1SZ93BFmwH+3fCsdcW7bHOdXBsmtqfOz1c+cZsX8vTTy7k6YjlLw+9+ip9vgGeNny0GwKBvSMsp/rhULWDvZfxBoEdv/NhSWdxpP6osN/z+rbpy5zbfmb48WlMptXaHOHk2BLLgaiEF5X+ouYUUAqhccfOtyzYruE+Ywhth5zm64SxRP8ZycdMxkjed5dKqJ5g1xsn0ykx2r+fL3DYbMBh+/8NJmKYeBk8G8vKKAQvORJV1pdHBk9v8Nr87fsGM67mLyINJrFppRTwKQ0YHVnwZpR2+RFSpAv4d2XxsOF3R8kGfOCIvQ2lp9V9Yjg1tgXy4UUwBt+SkQn3oZXmSbaXQeuooFva0BgzcyMpH5enA/UvIqnBo0oGhUzswtLMV7UKX8mPCwzxV9UArKlToa/mVr8Kz21y+PDKSnYuf46nOnfjmxcUsfKI/jWv5sW8RPJs3H1/GmOe/4KHtj+OnADQhuK0r75xPxsEjlJp6/QACgjtSvPIMcfoRhNb46d2UgFYqvr9wCQNtyz7TSi9x4ZwdYXPqelafaW2+I6UJTdV6tsQnQfkVXqqrPq07uBsDPN9l78F8HhpZ/lV3jQO/HCJs4IfGrmpQqVTV0xH31OZ7vTZMUbfnqyDxZz7+5zw+jO/AK19GMaePL3V+d4RgX5pZnOCCTqHxlLE82MMGMHDT+LdcVp83fl0UjuyFhAMJFExqRQMM5KfkoPi50ACwCGqEN5BWmEpSrJ4wtZ6kqLJZFkpHL3zBrLFs997mO7PzdcFOb6DgegaaVAj2uc7Vy9WvN4eOTfHSXyS9KIkLp3S0bq/i8rFkilQKFv1DaeUC5dkxdHpKiwygu86V5FuuWxPbXJJ0mSyXQPq/EkL/F3PYNWYhGyMLOL0vDaoEInYNbYA8yCuiGDA3iWrK+TKVqW2Gmxx5PZyhi22J2LOHea3rYShwj+rhmKdSPpv2GWPGr2DiO9cBC0ZPC6Xs41TL2mf28bNx/N2BJZuY8a+z1dLccJO9729kxoyNvLfTOGz0wFFmzNjIvNVVO91dGTqurFvw//4vA/BmzJDKPJBHgCdeGCD5NDNHfcPYHl/wknEk74Ef4owzR8o0796MZhhgyx6GT1zH3/ovYeo64wgazzDmP+2CilzeG7qE/pPXMnHQJzT3/ZT5O6rPLDJNMTlpySQnV/mnrbIdgx5daSmlpWXZOoOhlNLS0srMMfmc+PgfvPTNIeIz88jPSWL/D3tJdAul5a3T3t0DCfU5wc6fLpJTcIOMs2e5fOtsJls/Bs1fz4kjbxOwdyZtu81lq4Za2DPghQX0O/gqr35/xfieNf2mP43vly/y3IazaPNzyTi3g4/f2kBilS/mZhOf5IGMj/nn2zuJv5pHjuYM25Z+zqGKAQeuDHt0KtrlESw7qiEnJ5XID9/gS7tZPNq/rqdIm9bmOwtizJSeHFzyJmtjrpCnPcOaF95hW9UiVr2Z/VI7Njz/FKtOasi+lsLRT5/gtZNTeHtW24pivv4BlJ6/QKIOKM3kl9fe4Xuz21yH18Ydr8O6O1+JG6bTpeMTHO/wAcePrWbeXQVOWRyav5uY62Wv4v+znhULzlB10iyebRk+xxWFHPaN+5i3H17F4pEf8HzgUlbvKv8bbEjX57riphgo+OpbIoZ9xSdjP+LlsOV8s804wqhlBwaPs0NRadk2djmLJy9j+cc5GPSOdHuqXd1mo01q850p7VvRyQ8UlYbvx3zKx4OXsfGXW4KegI4MnWCHorrOrgeWsXjKcha9mQlezZn0difjfrnhGQqKSsfxZ5azsN9SNu65ZTumtDk7jm9Gf8rbbd7njXFfs2TSV2w/AAa9JUFdvKtvrktzHPUG2PkLHzz4DYuHfcR/NpSPcLxJzMfrWDFnHdt2G2e1HTrEijnr+HqdcURhXZ0vM9oMOcQc/Y3rVw9wMDq3xs2J26uHwZMlox9oStG5HPI83Jjw1iQ+e7j88izg9MZETueX5THjdpxj5dZMql9apSTuO8vKlTFsjTZ+K8SlsnJlDOujqg9EDRwWQkcMlJYC4SEMqRxFiF3/IWxbqqajr574IxlcCe3G3otTWfT3RrRu507V7xLbnv3YuKINA0MhdmcSJ6/b43Azj7KhgTaEvz2NvUvaMjxAx6mt8ey+oNDtyR483Nb2Lo7POd4a0JSmTSv/dXjr18rFh1+isZUVVla9+DAjg4W9rLCysuJva8oHLdrSuFMIBRvnMSC4ET6thvHisQAW/vQewxxvqco6nNd/fAXDor74N2pO79nvsS+p5nul2AeMYsGWk+x7dwrtfG7TfJ8HeONFP7564W0OGT8HbTq8wJYtD5LzyVhCfZrTc+onXHJww6pqCsZzHCt2f0Kb315hQGBjgvo/zudJBmxKKqMVt1GL+OnffvzwWEf8/bvw1KHWfLrlLXr+AbeXManNJgictZJVQ1J4tVdTmvZ+ifNDn2F6tdlpKoL/8S1bputZOakd3m7+dJtznAFvzye8Sm9bowkRLPZdy4hOvRgw4mkO9fwns1qY2+Y6vDbueB3W3fny6/woHx6KYvPLw2uesGCSfFI2J6AtKvtsyYk8y/GfMqk+H82G4DdmMu+9DgQ215G24wIXL6rwn9mTnm0q060Negzn+e1D6T7QhdIzl7gQB14T2tKqicrY29OQbstm8Pd5gXgrV4nbm4N15xCGfTuDh/rXdS7atDbfeTPNGLd6OO062MPlTLTuHZj83K3Tah3puvgxHprdDA/dFWJ+SCW3RIVr20bo0nOMMyA96bOwD0GBtqDNoTCoBzPeaG5+m12aMfz9/nTqaE32sYvEHMjFplMwA1bMZOYD1cMZ6x4Dmbu4Ay0CQbs3gcs5DtjczDXeKqaUrP1nOLE6mosXyj5LlKTLnFgdzclT5d8XdXS+zGgzeNF/WC+wHsqIfnLfqbuh5OTk3NN9F5OSkmjTpk1dtecPFMsMZR0rseaf+1/i/fD73R4h/np0RdkkHVnLSzOe4Wyftez8bCy+MiZC/AXpiwu4cuQY3zz+C7EaGwI+nMEzM7ypdc6HqKKQ7/7uxnRlNUlfjq2cMCFMVg8zT0KI2ljYuNCizxy+/PoZdCtn8NbOgjuvJMR9oLJugGfvvjzxTXfcKSJ1TQwpcssi0xhOcXSvB489NlwCp7tUj0aJKdh4OtCmhQct7ssUNCH+e9h1m8f6Aw/j31XuASP+2qw79mXeb71wCWxo9mDtessQxrMHjmPvJw+FvFv1qNtOCCGEEOLeSbedEEIIIYQZJHgSQgghhDCDBE9CCCGEEGaQ4EkIIYQQwgwSPAkhhBBCmEGCJyGEEEIIM0jwVK40k7MnEsm73Y0bTCkjhBBCiP9p9egmmbdTgmb/d+zK7cesjndTRsOJ3Wk08HWsFo3qrsVw6mZXJvfzrfbIAMONNC6k5nL7GExPXsKvxFj2ZtKgZtWeUm9IP8LG3xwZOLwVzuWPztBfYMe6q7SZ2A2vmu4UV5hFfPI1ar4BbzFZp09wtdUExoQ2pPancejJjdvOlktqxg1rye0f81VKwi+buBw0mt5NqjxjL+c3Nuww0H9iR1xrCd2zjm/jvEdfejc15waNOjT7N3DSYwgjQpyN+2Dg6pH17LUfwoTWpt0ZteT8NtZq2zI5/G4e/iqEEKI+kOAJKE7dx+ZoH0bOCqo1ILhtmZwUzmQ78ff+6mpBUvJPh/Fq6/O7Zy0pDdxo3MQdO3vrsmCrVMuJb7/ncvtJjFY3rAzA1CF0+l1LdCRFncEy4OHKwAngSjppzn4Mru0Wu7ZOePk4YOPYACsF8k98zXfKBB7uUBagqNWta1nRSH+DxAOb2XLegY49SkmOjS17O/cS5/LDGNXXr3qwkXeGY1nNGNq36sOJC4jZE02he0esb5Pz9PSzZ/26wwQ+1R+HtAtocquGmYUkRqXSfNRIgqo84LUkPZItJ/WEDsggLjaVK+fjsW3nR1wUNA3PIDY2A931i8SWdGB0T59aL3xt2mWc/YZK4CSEEKJWEjwVp7B78zmajZpFS9u7K6PPzKBAseCiMaAoU8TFy84EDq4hj6Oywb78i784k1+37OVScRGWxcUUFOpxsLtNZFEQw7GURrRsnkJsbBGa6BS8hoygZXo6dr5da19PscGh4iFGBjSaAny7mJLZMVCQHs3x6EtcsejBzFnNsTW+n5ewl+9jSgju51yRrSrMukTytRJyY45R6h1OxvnD7DqWTuik8TRJ2sU53+FMdIzhtwwdPb1uCSuLc7hW5IirZyB9+lrRCAWDiw++bg1wsLEoq+PKQSIVf/pXCZwoSGD/rzaMfljNmThnAnp4EhjgS+zRFAbOmIz9hd0cVDoxqIua0Cqr6ZJPEHnNHm+78taXknCpBJwvUHEq9deJjbpBh4n9aSIRlRBCCOr9mKdiEnd9z8UWoxjY3Oauy2RpsmnZsTNqtbryX4ANRbY++NzmCJdmn+OnzUex7DWcICt31OqGFKdFsf+XvZxIyKb4d2sYyDxxiSYTRtNRraaF1WXO3nTD0wbSUrNRlWRToDdlv7VoMjzx9bxlT4ur1migUJvI+egzJBb702PQaNoUbOWXBAOU5BC3ZxM/J3ozYsoYOvpXPlPK1tmbxk5XSbBtTztnO7yCujPxsfEE5B/nwLU2jOzigV1gM27s2kZsjq56AzKOsfr7U+TgQ1hrD1SAhZ0jjuWBE1Cclsr/s3ff4VFV6QPHv3fSSe89oYVMCCEgQXooAaVIEUFx7Qio4Np2V13dXaP+XF10dVXKKrhWEKWIgoUOAaQTIIQUQkhCJmXSezLJzPz+mAkkIcGM4OKa9/M8PA8z8957zz0zk3nnPeeeUQUHX6oM6Qo5cayCyEnD8XezpV6jRZvyNcs/TMJzSDQ+NuAY6oL2WCZ1bXqhJOsUNS4tnrNwB5oMEQwe1OI+z1rK3XsRKImTEEIIsy5deao/t5WvM/sw86EeHQ7T/HRMDTk5OvReqbQqPFWcpsQrBmf06PVWWLWa9FSH5vg+jpf7MPTW6XhbZ/C1LpBRtrZ49BrE6OAiTv3wBcv338Cdd9+IT3PmUHWSrblBzIxVgFrOHM4lavxkvG0rSC8JIGrgeb7+aB89b5rMkKBuQBNl2RkUts0a9DlkNCg4p6fS3GR9eQq79lczfO5d3OCuAhoxdAsiIurSOGDQwPFUavfyXSp0HzyV2d6XJ5OKrY6U/SUMGBtE4vZqeg2AxtIMTuT7MjY2xFS1sg5lzMhU/vP+B2ROu52JajdUQGV+Hh5RsbgpBRzbkY19oKtpyFNfQto5R8ZMG0C5pozACPfmjqSq1EjvEQNxUgH0YUjPzWxLCWXGmEbSz1fhE+aM4hTN7bNsaN1aHfl5NgTc2KIyWJxHgXcALXPKOk0+3YJHdPVvGUIIIVrouslTXQY/fJNFv9kL6PCHpTuM0VF8PpPiBsBwgeRKHyLb7ENX0YSrYwVHvt3CgdoRPDC7H840UZGbQVZ+Ld16jmaqp3kjTTa5HsE0pwTYetN/2n24HjyDTo/5WdKRcViDm68PtUC34kQSrUZwu78KGjVoVIEMDIih14RtrPj0O1z/MAu1rTWOXgEE2zjh2GKSkfH8OXarY4hRB7dosZrIVqN+tuahRT012kzSzmooL7vA0WOVDFv4CH2920sn9BQe2Mhxq0hGn0mlysaf7avW4ztuMkEln7P59Cxm9XNB0RVT6Tae+xfWYefkZE5MDORrdASNdICaZM4UOXBHnBpbwHD2Gw579cWVCpLzXQmMaz6egrOfn7nDtZzYsZd83xHcPtMPOxqxOrSZ9du6M3Rof4Kc2w6f5qOpD2RQiwlsDfm52ARGtZijZiQvr5HAYVJ2EkIIcUkXTZ5qSft+E/n9b2d+UEcfjFeKscXFJwAHGyds8mqpunU4McGOGNO+YlXZWO4Z6gZqNaYp2NEtJn0bcfAJJzpIIe/YDg4XBOJiBY0lTfT2rSctNRWoR5NSROjNE+g9dNCl1mQcIK/7WAZk76VYV0P+zrP0GnMf3QAKNdT69zP9P3g006Zl42pusq2jy2UVs7K8fDwDJ1yhfxqpzM9FW1lHfYMBG1dfevSoYmeiFs8bR+NZkk5qCYCBisxMrG+czCAvFWCFe8R07h7qTt3+DHoOGcv4QIAGju9xod9oF6jJYseG7RSFTWLW0JZXIRaRq/Ul1AuMWQUYgoZebHeRpgTv7u6gTyWvKZAxtq3bWnY2keOpeeh8wunRrZzzqeUANFTrwVDCgVVLKXUOJiQgmMjBgwhxUqBcg8bQRPfUVMrMeyo5U4C1n2lyuUkNqXnu9Pe4QlcJIYTocrpk8lST8j2btQO4a3pghx3wUzGmpKSSQ7sPoB0RBoBWowVV84dvI8WnjlAcNZsZEc7mrWywtQWoIudkHvZ3xqF2AFATdfHARzl4wIUbW1REjJWZpOijGBnejbryMvZv3UK1Yyz3msfzKvMKcblYjrElODLsCmffSG4uBLYtlbVig4t/D1z8gcZyMo7+yNYid2IffOrS5GpjLVl7NnKEftzcYt65rZs7tug4p9GheKWRnmmPp5+BPIMvUTlH2ZOrIvzWucQ5talc1eai6RbIUBUU5WqgsYjU1GJAT3aGHQHDgEINxf6heAJgoKYwm9ySWlSe/Rg3pT81dSocHW0vLbWgVhMNYBiB9mwyefZ9TYkT0KApw3fYGPqqm2eel7FvbyA33KZG3TxSqUvj/Nne+HW8doMQQoguqOslT9Wn2fxdMTfePYO2F3tZFAPUpe3mmGEAt/VyRqEeTb4rA2arUTfnJeqo9jc05JPXGMjIdtZFMGg01IcMptUok0Mw0eE2qADHkABKtxUy9vGe5spME7k5evzHX6GhrRSgKQug708te6SvJi8jk7wKA54R47mxcjWpZTfi72CFsTaXg9sOUtV7IndGephfRHUUpqWQcaGACmMdORUB3BIaRpCDCkr3U2Zji41nNGN62gBNNOlVWLdosiFPQ21gDI7UklHix9BJEYTbA2ip1fQn1A5q8jQ4Bgy7mBzZe3Un3FeB4iQSDiv4uLV9OTegSS+m501x9AiPaTWXybbvZKYpLTpZpyGXQCJbLvVgG86kqZ3sViGEEF1GF0ueqji5aQtVQ+9hhG9HyUZnYoCas+w86c5ts3xJ3XUCZYQLeU2BjOjM9JgiDUW+gXi1+1A+PoG+re5TbGzM054KOHq4ktCeZRw9mIH/iN642RZQUNeD8M6tAQnlGvJcg4j7iTBdlQ6XXv0JML877gaqAAAgAElEQVRCyjy9sGqsIufYMU6VOBM9fibBji2rR1bUVtbiFT2O4TbHWa3zNyVOgC4vH3v1NAJczZlJaRZZSm96u1/auliTj3egL2BF9K3TW+zXhxvifAAj6Zo6gi4ur6C6OAlfl5dCtvVkYtVOrU+i6jCHk3wZ1c7yEorSppxUoKHEPwz3y0OFEEKIVrpU8lSeuIlttcO4f5hPh1dPdSYGXR4HdufR95bR+HYD96hEvl+zidSaQDyOncLDqRt2tlYoRgNNugYc/CMIcr30YV1z4QI6nElvdXkegJ6sDCv8B7ZN2ozU5SVxKLWBXmOmEONQRcbe71m9bDuuoSH4hbqhOXqcIhtrFFS4hqrp3qoKY6QiO5G0QgONF45iDL3rJxeBtHXzMMUYdZTnZXJO54oxO4069QimDLJvZxVyW3oMHmnqnqRcVP4DLz6izavFO/rSEcvPZlMe2bvFtnVcyLEm6LLzBuqKycjMp4Eqki74EdNOJaiwoAQrh1wu6878NIxBUzu14GV57gVc/Ed1IlIIIURX12WSJ2P5MTbtaCB27lC8OsiKOhVTnUfyuRrCbxqNh7mQYuszkOn39WVkVhrp5/M4m1VBVU0tdfUKwaNuJc61ZaphIL9EIWZYDGrftnvXUnthCCEtq0j1ZeTkFlBn34NR45zNE6xd6D36DnoOLSMv6wJ5RcWUFWiprq3HIXwCkZcNXym4hg4ksvZbvmgcxOSYK9VX6inTaCmvb0DXoKNRDw6egfQfqr7iquAteojCMivCIi6NSSrWtZz5fi0lzipAR3mxnojgRnAyd6ChgHKbSKJc2tmdgxe9wxrYsWo/DrGz6XlZG8rR1vZhRJya0Da5V3HtOdQBnSnJNVJY60ZUuCU/ByOEEKKrUsrLy6/qZ26zsrKIjo6+Vu35xRjrCskosqN3iFuHv93WmRghhBBCdG1dpvKkOPgSFnL1MUIIIYTo2mThZCGEEEIIC0jyJIQQQghhAUmehBBCCCEsIMmTEEIIIYQFJHkSQgghhLCAJE9CCCGEEBaQ5EkIIYQQwgKSPF2F8jPJfPxpOufrr3dLriFDE7qm692IX7ealCT2rEpD+1t63vntnpcQQlxrXWaRzGtOn8lLE9byVp7CEO0jHPyDz/Vu0VXK5C9917E8U88DW//MG7G/3JGSXnuX/n8uvXSHbT+2NtzGhF/ukNeO/hwbpn7OviIF/+LHiH/8st/Y+a/Ief1NXvm/kou3jVbRPFp6O/1/7g5/JeclhBD/C6Ty9HOp7HD3UAAVXu42v+ih0j9dx+TRS1D/PhndL3YUHYUptZQ2XNWv9XSKW0QY8+ZFMu8WN2z55Y93Tans6eamYDRY4eT2M573U1t4xvk5Fjj/jQ+3G4Amjsx/nodcn2dB3G60ndxNN3U4MXdFERPnjmK4ch/mrV7D4glv8cyTSTR2FHS15yWEEF2IVJ5+LiWQZ3Y+xNizVvQbdqUf2r16ZWlZfJ9QA8H6/7VUo13B0yeyYjqQsJkNm49S+pNb/IoogUz/4VEiM6wIHuJh+fZV9dQDikqPJq0ExhvITzYCCpTVU9fJ3XhNncL8qcC+jZzadpiGK8TWpGdx7nAVxmB9x0FXe15CCNGFdKHKUyrzlXgU5RMWf7mVO4a9gafbYoY/eICTNc0x2TwbEo+ivIgS+i2H6rWseWIlaq+XUOzW8l0jgIGND5hi7HzeY9SIZbgvSG51JO0nn2ClxKN4bGBH81f9xG2olXiUbqvZUAnQwOEV33Dn+CWEBbyCs9fr9I/7kn9sLePilKP0BG5U4hn6irmBq77CXnkRRfmYz1pmHPoq9ry9nglRi3FzfZXw2M959bvSn12lqk46wrwhi3F2fZ0RDx7gVE2LB+uL+fqlzxkV/hqurq8RMfYLFm8pa32szsR0xk+eVyf68OLz/ilLt+xj3uh/4uH6GgNmJ3C00pLGGDiy4Dkecn2eRb2W8NbNb/PkoqTLw6ry2PeXj3kx6iUW+b7E08OXs+zFI2QWmRIXY3UD9dhi7w55qVr0Oi35qXbYuRqhogHTdKMzrHB+jgXO8Xy2z7TbE4/9hYdcn+eJZzM63+Szu3jB+TneeKsKAGX9Wh51fZ4FzivZV2bheQFQw74XhhIQNJY3E3+5GqgQQvzadaHkqdl5npl7iiIfV7z0tRz4z1bmLS0wP9aN6Fk9iHY0Qk427zy4hjvfzuN8lQEiPOhuA6AQNKQf8+ZFcktU+93nc3MEN6uAsmwOnjHdl3XgPGko2E2NYJwLgC02hTn8WGFP9NheTIpUkbHzDM9O+4L3z5l35OzFpHn9mDbAynS7VwBz50Uyb2FfBlwsDuj48W8fMv6JJA7o3Jk4xQ+702k8N+VDnt7R2TpGS42890wCmX7u+Olr+PE/W5n7br654lXDpkf/w4wX0jnc4MaEOFcqE1J4ZuIH/HFbrXn7zsR0RmfOqxN9eFEmj077kWRXF3wa6zm5bhfPri5rG3QFCh6D+xNzVxRhfTp62+g49bf/8Om76eQ3eRJxSyiehhJOvf0jyQWmHqyvrseIAa9e3jQlFVKcVYRG745nd6Cknms6V9vZm6h7+hMeYXr9GIOCueGuKAY/2I/Qi8XSzpxXs0ZKc3PIzz+PpkKuKhBCdF1dMHlSMfPfD7Hz6/ls+KsXAEe/PEMaAN7c+eYYJnoAFLF6sz2v7H+IdycA4R6EAqAQ8/AsVqyYxZ9u6mBuiG84MyYoQCV7DpYD9RzYnQ/A1Ol9cDPvZ+Dzi8g+Mo91q+bw5e57eWkI0FDIvuPmQRj/vry4YhbPTbE33R46hGUrZrFi6WD6NR+rOIl/LC6lSRXK0oT5rFn9APtWhGNHFUuXJFOCpVTc9u8F7Ph6HpviTZPgj61K5jTA+RO89kEt4MnL3y1g3Yb5rH3aBahh6ZunyO9sTGd06rw60YctzuuWJfPZ+819/N+tpntSMi1LnnrNn8P8ZXOYEmfbQUwt2rOmBNF1wgjueOdenjn4NC8fuo+JUaYR8oaqehSVHp/IAKxPa7mQVkRRuCe+NoC+gfqaDnb9c/j1Y9ayOUyd2M10e8hQ5i6bw/x/DSXYovNq5sa099Ip0ibz+phu17ChQgjxv6ULznmyokeIMwBhal+gBDIqyQPC20QO+et0/jzcF2VzPAssOoYLk2cEwhYNCT/mUDvXnn07jGDdnWkTHM0xBjQJ+3ntzSS+P1hKtraJJhQAausaAbvOHSpJw54mgBzu93uR+y8+oECilkzA06K2W9E9xBkFCO/nhzVams5WkGcAdXI+BwEcAxjUVwWoGDg4AEjD8GMBqYBXJ2L8r9l5WdKHVoSHu2MNOLqoACOGn5hobTlXBtwfwXf7Uij/eC3Pr/2B0JsjuPGBUYwNM0XUVplqS6q+fgQ1HCfxByuMAyIJzEzmOPXU1QCOHR/hurN2wsuyF5QQQvzmdMHk6RJDk3kCrd7Y7kTsKLW3+aPYckGTI4gll4TtOSSetGVrKaim9OVmb9PjTad2M3V8AolNCn6DQpg92R7NjjQSLlh+RFPbnbn5wRCCW27u5Geucv08Br0BA4DeSOs849JBjM33K0qbvupMzJX91Hldyz68NhS8Zt3Ny1EpHFx7msRvUjm7/hDZ609z7tNHeXiGKw3NyVOPQEK8t3Joowq/PwVirwGop64a+FWvemHEaFRQrlcXCyHEr0AXTJ6MVFXpACtOJZoHkQb50PtaHyYkgpkjt5GwL4tPV9qQgcLE6X0ufi7m/XiOxCYFQmP46tAUhlLEP8ekkXABmpoMrXbl7GIP1EC1jlra1KQiAxhlfZxvm6D//dNYPNIWMFKtrUHl44TlgysGKqt0gDUnjuZhQIEbvOhtBTbhPsQAh2vyOJ5iIC7CyKnjpj5UDfNFTediLp2YHV5AaVMDVW0rLp04rxwL+vC/pTHrAlr3PsT9pS9xfy5n24zFrEuo5eTuPJjhSn1lA0aDgrW1HyGDDCT8oBCs9sMmAaCe+moABZUVoDfQ1GAEfQXF2R1UyZztcQAamof82qlaObjYAVVQ1YAO+PkLEdRz4KVYJr1jT/zOnTzRvwv++RBCCLpk8tTE+3Pfp3CkNYnfVADWTJ8bSQgARXz+1G5+MF/JtnfJeuYfiiD+5X4EXty+nl1vbGZ1GhQcMl9Kt/cg8+en4DhmFP+6q3lxQQ8mzfTliX1aPvgAwJ8ZEy/VgbzDfPBDQ0H2SRZMK6NXSR7fHTLv7us08ucOvji81XN4D3pQzPlNO5kyO4Og0mK6zb+Xj+a4gE8UTz+5n+9fL+P1SUs4NsUfj9Ii9uxq5PbND7PkZkvHgPSsmPsehSNtOPFNKWDF5AXRhAGEDeQPcw5wx5pi/jJlBYcHGjiwsQJwYuFT/fHrbEyzsBDG+O0nvSCDpyZ+yudOMO6fd/NIX6VT52VJH169epL/tZEf06HiiPlKs/37WbEwGbvYMdw7xw/K0vhs+icc0DoTPCwAd1UZ5/aC0WBN+BB/wEhdVT1gjcrGkYEv3ofbw9Z4x9hx7mPTMeqqADzxiQTltJ4jTy1H61ZG5nEjqNop9/QKpY83HC5K44tpH3LQUSHiH/cxIeJSrM+Qnjgbiqjcup1//u4sbuVF2D7wIA/PdunceV1UTvLBY1SUGNiXVMkT/WVJAyFE19QFJ4xbM/3O7jScKafK25NZf7+D9+9pTmpqObnuPCdrTB88aVvOsHJzIa2vaG/i/O7TrFyZzOYkc3UjLZeVK5P5IrG6VWSfyX2JwUhTExDbl4mXZuniEDeRb5eqiQk0kHGggOLIYew6ez9v3+dL/4FetFzf2X7kONatiGZCJKRuzeJ4hSNO9VWYpibbEfvqXHYtGcCUMD0nNmewI11h2O9HcM8A+5/RPwE88aQvRSfKqPL3Yc4/7uTDuc2XZjlz+8r7WfNcL25QSvlhawVOI9X8ffNc/jmhmwUxZk59iF89ittvdKDqxAUO5zWgudA8Y/qnz8uSPrx6TWj3nOLoqiTOppuedyXrAkdXJXH8hPl5d+/BlDfiGBxjS9mhsyTvrcRucATjVyxgwZ1ugI66CiNghZUVOPcNp39cL/xdrbBxAGigrtoI+DBm8RjC+9hDUTl14SOY/3LP9pvlpGbWh2OIGuiI7nQ2WQX1lOW2fh3ajpjAoncG0asPFO3K5EK5E3b1leYlHzpxXhf5ETd5FNhO4pZxkjgJIboupby8/KpmzWZlZREdHX2t2vMLSmW+soaV2PKHPc/9oj8/IsRvUx0b7vNknrKKrI9uxeV6N0cIIa6TLjhsJ4T4WYwnOLjLmwdXTZHESQjRpXWh5EnBzseJ6F7e9LqaS9CE6KqMUfxx7xEcQ35qPSghhPht60LDdkIIIYQQV68LThgXQgghhPj5JHkSQgghhLCAJE9CCCGEEBaQ5EkIIYQQwgKSPAkhhBBCWECSJyGEEEIIC0jy1KypkNNHz1N1pYUbOhMjhBBCiN80SZ4AaESzZwPbLuiwbue3VzsfY6AybTOrvsug7ieP2UTm9i/Yc6G+9d3lx1j7xVFKDR1vqT3yLXuyan/yCK3p0exZw6Yz5VzK/YyUHFjDulPlHW9mzGT76gRydR08XnOK778+RbG+g8cN59j65SG05t9QpuoY69efotIA0IROd4UTBRrPfMOnP2ppumKUEEII8d/ThVYY75gudzdfJQUw9eFwHH5ujKGa83u/YlOKEzEjmshOTTXdXXmOMzVRTBsbQqt1matOcUjbg0ljW/54by3JO5Oo84rB9gpprU+II1+s+ZE+j8fhlJeOprJlKayO84m59Jw2lXDHS/c25iew6biByPEFpKXmUpySgf3AENISoXtsAampBegrzpLaOIjpIwMuvTBK8shx9CfOqpyc1ALTjxHrK8jJd2ZoXF+cC7LJdbmRSVbmbqjUcDav6lKCVp1KRr0zIedSKQXQppJv6Ele+hnSzu1ll0bNfXNH49vBK7EoXwPWpWSklpru0JeRfDAP9R23EenUcR8JIYQQvxRJnnQ57PjqDD2mPUxv+58TY6Q2P4kjSecothrBgod7Ym++vypzFxuTG4kY50ZzsapOe47s0kYqkw/R5B9LQcqPbDuUT+QdtxGctY0zgVOY7ZzMsQI9I/2s2rSjnNIGZzx8+jBmrA2+KBjdAwj07IaTnZXpGMX7SFBCiWuROFGbyZ7Ddky/R82pNDfCRvjQJyyQ1IM5TJg/B8f0HexTBnPTEDWRbU+9IB+bwIEoVvb49XLB1kZF5ZHVnPC4BScFSvKL8Q32vhivcvQkMNgbh262WClQe/wYHgMmoVbbAVCk/ZHQG4ai7qWAui+Dr/jk1JKX58kNc9SobS7dq27bSCGEEOK/qIsP2+k4v20jZ3tNY0JPOwtjjNQVnScl6RTndaGMuGk60bWb2Z5phMZy0nau54fz/txy9wxiQl1o/uy3d/MnyLWETPsbGOjmgF/4cGY/eBthNUfYWxrN1CHeOPTpQfW2b0ktbzMWVnCIVRtPUE4AUf29UQFWDs44NydOgC4vF1Vw8KUql66QE8cqiJw0HH83W+o1WrQpX7P8wyQ8h0TjYwOOoS5oj2W2GGpsoiw7ldTUVI6laLGqOsGGDbvJq1XAWMjRVDf6eeSTnprCybN16C98x9pdF9ABWNnj5GhKnMBIaZMfA7s395sBnWs/BgZ2OO7ZmjEfjSGQAJufDhVCCCH+W7p05an+3Fa+zuzDzId60NFPnXYc04ihWxARUZc+2YMGjqdSu5fvUqH74KnM9r48IVNsdaTsL2HA2CASt1fTawA0lmZwIt+XsbEhpqqVdShjRqbyn/c/IHPa7UxUu6ECKvPz8IiKxU0p4NiObOwDXbEC0JeQds6RMdMGUK4pIzDC3Xw0I1WlRnqPGIiTCqAPQ3puZltKKDPGNJJ+vgqfMGcUp2hun2XDpdZa4xLQCzdjLpu3+jFo5gjCrapJOp5OVbd0SvuOZnSgA4pNAecPhjN8bBy+F7fVUXw+k+IG802XQMhLJTXPfNvOBdITWHe2G3EzY3Bvk0c1ZB7mUJUzPnYKVKeiUZwpTE2lENAVnaXAeyw3qWW8TgghxPXTdStPdRn88E0W/W4dR4c/En/FGFscHW0APTXasxzfv5sfTxxj+6YknAePpG87iRPoKTywkeNW/nAmlSqbEravWk9ifSCBJdvZfLrSNFdIV0yl23juX/g7bjYnTmAgX6MjKMABanI5U+RAmFqNWq2mj20JFV6huFKBJt+VwIDm4yk4+/mZEiedlhPfbyJRNZzbZw4isPcgwkq3s35bIrlVVtjZts5irGxsKDmynURVA7lHM6k0OBFQf5rPEp0YEVJFQaM1qoo8ilyC8G61pS0uvoGE9uqDWq1GrXbg3MF8PMxtVavVhNkWUeIehGs7BaiC9CNUOptjY2aw8N4483Y9QVOGW0C3KzypQgghxC+vi1aeakn7fhP5/W9nflBHmdOVYhqpzM9FW1lHfYMBG1dfevSoYmeiFs8bR+NZkk5qCYCBisxMrG+czCAvFWCFe8R07h7qTt3+DHoOGcv4QIAGju9xod9oF6jJYseG7RSFTWLW0EAuzXoqIlfrS6gXGLMKMAQNvVgJK9KU4N3dHfSp5DUFMsa2dVvLziZyPDUPnU84PbqVcz7VdHVdQ7UeDCUcWLWUUudgQgKCiRw8iBAnBepSOJRUjUefCairtrLn/H1E12ipdx2En5OWNRu0TLkhFyUo4rIM3Lab86UbZRqK3FsnWAWaIgK7+7aTuVdTkO9C0Oj2hvXyya0PJsal6+b7Qgghfh26ZPJUk/I9m7UDuGt6YIcdcOUYG1z8e+DiDzSWk3H0R7YWuRP74FP4O5g/+I21ZO3ZyBH6cXOLYomtmzu26Din0aF4pZGeaY+nn4E8gy9ROUfZk6si/Na5xDm1SRJqc9F0C2SoCopyNdBYRGpqMaAnO8OOgGFAoYZi/1A8ATBQU5hNbkktKs9+jJvSn5o6FY6OthfnR6FWEw1gGIH2bDJ59n1NiZOxiuQfi+ge5UOtawCBfe6n2/m9HAmIIWTXOQomD2L4cCOVmSfwC3e5Yl/rNBqsA6MvHZMa8nIdCRzeToKkz+VCmQ3+2amktn2s7iwXXPow8YpHE0IIIX55XS95qj7N5u+KufHuGbS9mM2iGH01eRmZ5FUY8IwYz42Vq0ktuxF/ByuMtbkc3HaQqt4TuTPSw9zJdRSmpZBxoYAKYx05FQHcEhpGkIMKSvdTZmOLjWc0Y3raAE006VVYtzi2IU9DbWAMjtSSUeLH0EkRhNsDaKnV9CfUDmryNDgGDLuYqNh7dSfcV4HiJBIOK/i4tX26G9CkF9Pzpjh6hMfgYzoxilPTsBs0AuOeTwmIsEVXdoKk+ijiopvYebwaK9wI7VHDkX2OBMReubsLNdX4929x6Z8+lwv1gYxsb70HbQlNg4YzTB1yWVXKcKGSfKfALjzOLIQQ4teiiyVPVZzctIWqofcwwrejrKgzMaCr0uHSqz8B5h4s8/TCqrGKnGPHOFXiTPT4mQQ7tvyot6K2shav6HEMtznOap2/KXECdHn52KunEeBqnnxemkWW0pve7pe2Ltbk4x3oC1gRfev0Fvv14YY4H8BIuqaOoCHNZS4VVubm6/JSyLaeTGzbidZVhzmc5MuolssvGBtwCB2EV7cidhZ5Emg4R1pNKCOi3bFCR8wtrrgDGPLI1Qcy9opXwlWSW+hCkA/UadNITkri1JksGqPvaTNPCmjUcE53A3NGW5GfnY9nqD+2VJNzrhq/Xn7YBkcSfCKXKmM4zp28WE8IIYT4JXSp5Kk8cRPbaodx/zCfDisYnYkBsHXzMM05Muooz8vknM4VY3YadeoRTBlkz+Wf77b0GDwSAF1SLir/gRcf0ebV4h19aaJS+dlsyiN7t9i2jgs51gQNbCeZqysmIzOfBqpIuuBHzNTLQwoLSrByyCW17VhYfhrGoKmtryJUuuHYDajNJdfOj4GOwbh7NUfY4qDXkJamRylLpMBnMG4ddxE05nKhyY8IK3DwCScmLgj/kDLcevm27h99OUk/nMZq/M2m/kn5mm2G+Uzp4YQ+dRW77eZzU5Ajfo1H+OKgJw8O87rSUYUQQohfVJdJnozlx9i0o4HYuUPx6iAr6kwM1FOm0VJe34CuQUejHhw8A+k/VH3FVcFbHIXCMivCIi6NWynWtZz5fi0lzipAR3mxnojgRnAyl3UMBZTbRBLV3vQiBy96hzWwY9V+HGJn0/OyNpSjre3DiDg1oW1yr+Lac6gD2k9/DAWlWIf1x92h9WR5e69Qgqr38G2WJ+Mndb/yqRZVYNW3J64X73AkMMyxTVADqZvXcCrwNn5n7hIX3zAC3Ewn4h6sxtfJlGo5hfbALV2PEdpJToUQQoj/DqW8vPyqfuY2KyuL6Ojoa9WeX4yxrpCMIjt6h7h1+MHbmRghhBBCdG1dpvKkOPgSFnL1MUIIIYTo2uTiJSGEEEIIC0jyJIQQQghhAUmehBBCCCEsIMmTEEIIIYQFJHkSQgghhLCAJE9CCCGEEBaQ5EkIIYQQwgKSPAkhhBBCWKDLLJJ5baSyPn4NSVFziL9N3UHIel784vRP7slo7Mec+NtQp64nfo2WcYseIbbtr+UWJbB8Hcx6JPbyH9IVQgghxHXRRZOnVNbHJxMZfxsdpEDtKCJh+RqSoqKISlrD+sh4OsqfjP3uaJFcFZFgyoBaJEem4wOgvo34+CISlsezPHIRj1yWQQkhhBDi16TLJU9FCctZtkuLkX5Edn4rEpYvZaePueIU683ypctJaK9a9LN4E/tIPLFA6vp4vjjd+pf1lr24CwCj0af9CpUQQggh/mu6zA8DgykxWcMc4mO1LF9axNhOVZ46GKorSmD50mQi2yYzFg7b0dym9spYMmwnhBBC/Op0qcqT+rZ44gGKtJ2Kb65S9ZsTT3zb3MY7lkfifVgfH098m8TKkmE79W3xLEpYTvxyLYskSRJCCCF+9eRquw6kro9nadFYXnjhhRZzm1JZH7+chKLm22pui49nkfcu4uPXk/ozj+Ud+wjxkjgJIYQQ/xO6VOXJEherVJ3gHfsI8bGXbiunv+DFtiN3y15kV4ub7c25aq50tdU85wnA6DNWKlRCCCHEdSTJ0zVWpNXiM3Zhi6vmfuJqO2gxt+kRXriYhJkmqReN7fiqPiGEEEL898mw3S/Ax8eyulBRSjJERtB63vlSkiMXcZvaNIS4/ueOCQohhBDimpLk6ZoqIiUZvD0t3yYyokXqlLqeNcy5WL1S37YI710t51oJIYQQ4nqR5OlaKkohmUgiLCk8tdmmKGE58cmRl67WK0pgefxSdmm17FyXgORPQgghxPXVNec8ecfySGdng1ugKCUZn7GPdDiZu+WEcGPUHdxG85DdLPM2qSTsLERRLk04N/qMZVF8PN7m7dclRMgq5EIIIcR11KUWyRRCCCGEuFoybCeEEEIIYQFJnoQQQgghLCDJkxBCCCGEBSR5EkIIIYSwgCRPQgghhBAWkORJCCGEEMICkjwJIYQQQlhAkichhBBCCAtI8nQVys8k8/Gn6Zyvv94tEaKTjHVUlNWhv97t+C+qSUliz6o0tPI+vWp6XRNXtaqyEL8Rkjz9XPpMXpqwlvvv/Zw7l2qvd2t+PbKXM1pRUMz/5nxRedW7LFp/P0E9F7Kl6hq0r6vTbWGRx2jeSb/eDWlfzutv8pDr8xf/LfD4klNXs0P9OTZM/ZzVCz9h2XuF16qZXVbSH19kYcirvPzPnOvdFCGuK0mefi6VHe4eCqDCy93mFz1U+qfrmDx6CerfJ6P7pQ6i28jdioIyeDFpzfcdfJ5QRaHboi2d30/ow+xsbKSxMZN/xf5ErHYDDw98iA3lVw6z9+pFdFR3PG3be7ScYx88zqT+gXh4hDBw2h/4/HR159sLFH0y42Kyd9k/18fYZdHermD9SuEAABYZSURBVAUNy+MUFPtpfHoxL69k1SyFGZ/8tn8aups6nJi7ooiJc0cxXLnGkbd6DYsnvMUzTybR2FGQyp5ubgpGgxVObu28T5vKSXpnDa/e8H88GvAyz074jI0/FNNkQZuPLXyuVcLXKvlz/huf7Pov12qOfMtTzqY2LYjdQT5Azl5ecX6OBTFbuLq0x4ihopqSol/sL5EQ/xO65g8DXwtKIM/sfIixZ63oN8z9Fz1UWVoW3yfUQLD+lyuZV1VR6RdMcPJ+jpRAuCdkHT8AISHUVVTTANh1akcKVtbWgOqnM/PGYs6eKGTUT5yU8+i/8u3o9h87/597mLykO8vXnGRdqJ60tc9wx00LsEtczUzfTjUY73vW0/g7UyMM3z2M3ZO+HEp7kRsAFNV1epME0CtoFyvWnOOex3pdlxZcD15TpzB/KrBvI6e2HabhCrE16VmcO1yFMfgKg5BKINN/eJTIDCuCh3i0ebCBM39dwZIlZRDgT+Q4FTnfneG72TmUrnucuTc7dqrN7jH9iQGglpyNGWhrFBwGhROptgWcieyjdGo/v4jEZE6ej8Pf6vo1QYjfoi5UeUplvhKPonzC4i+3csewN/B0W8zwBw9wsqY5JptnQ+JRlBdRQr/lUL2WNU+sRO31EordWr5rBDCw8QFTjJ3Pe4wasQz3BcmtjqT95BOslHgUjw3saP5KnLgNtRKP0m01GyoBGji84hvuHL+EsIBXcPZ6nf5xX/KPrWWXvvWmJ3CjEs/QV8wNXPUV9sqLKMrHfFba4oD6Kva8vZ4JUYtxc32V8NjPefW7UsuqVNXVVDiOZ/zoPRw8pgPqSDycwYQJg6GyiuZaztF4NXaPfH9pu4aN3K3cyFsWDQOl8NpABSXoIXbyNXd7mKo8Hk/saB2W9BpRF6tA/jy7v81u9PtZGr+bKfGvMrOvF46Ovtxw/2Kej1nLSx9cGuxpPPUhcyfeQE8fZ9wCIhg77x0OlrTYj2KFtbU11tbWqFQKoKAy37a2uvQWyXx3NIqiYP/Qt9Smr+XJSX3x6abQ/bkDLRtF3s7F3DW8J56uXqjjHua9o21La52JseKWO+8ldcVnnDR01I81nF71FFP6B+LmFkD0LU/y+Zma1iFGLbsXz2FwoCf+feP4/UcnuXz0szPtubLTf4xngfPbfPTal7wY/jLP3r+FH555j6e7v8RfHj6OqbvPsML5ORY4x/PZPtN2Jx77Cw+5Ps8Tz2Z0/mBnd/GC83O88ZbpTJT1a3nU9XkWOK9kX1lzkIEjC0zVl0W9lvDWzW/z5KKk1vvJPcrXy8ow4s5Naxby2GcLefw5HxRVDQdfOWiq2FBPxn82sGTKWzzd6wUWhfyd5yav4uvtpRfnjfWcO4f5y+Ywf9lNRHub7vO94xbzfVMYFAhwns/DzNWg8E2crdey/4//5pmQv7DA43MSm/9O6Cs5s+RL/hHzfzzq/xJPj/+UjT+UtK6sdSYGcA11QVEVkrilhHbVF3H075/ycv+XWOT/Ms9OXMWmbaWtqm6G/DQ2/O4tngh6iWembuBwRjvfdDrZHqhh3wtDCQgay5uJUrkS/9u6UPLU7DzPzD1FkY8rXvpaDvxnK/OWFpgf60b0rB5EOxohJ5t3HlzDnW/ncb7KABEedLcBUAga0o958yK5Jar97vO5OYKbVUBZNgfPmO7LOnCeNBTspkYwzgXAFpvCHH6ssCd6bC8mRarI2HmGZ6d9wfvnzDty9mLSvH5MG2D+2tgrgLnzIpm3sC8DLn6J1vHj3z5k/BNJHNC5M3GKH3an03huyoc8vaOu891SVUmZEsSYsb3ZdSgZOM2R/SMZPdIeKi4lT9dGBE8fbaQxeznjmMYnRY00NjZS9GZc67CopznR2Ehj416e8mtnN6n72XZhHONGObW404fRN43g5PZ95JrvsQkewtz/W8uhzEJyj61mdsVrzHxx+xWrGu3p+ehOGn9YhPHM5zz08Gp6/Pk71v2pH95urhdjdKf+ya0PHGDoG7vJzE1jwyIblk17gk1lWBQDWgzD72Vu3Qo+2dv+B035lqeZ/Mez3PzvQ2RlHebd2BQenfwsO1s8Wbkfz2PqOzoe/Oo0aQf+w7TCBPa12U/n2vPTFJWWAx8WYuPYSNlXCXy/T4+doR7tqv0czbJsX1fk7E3UPf0JjzC9L4xBwdxwVxSDH+xH6MUisILH4P7E3BVFWJ/236e1h86RZQDsQgkbYAUoBA/tjp3BCInnSNMC2GGlzSaz3IHA2DDCw1WU7U3m2ztWsyPTkkY7EnJrT7ztjJCXybZHPuXj93KpqDZAmCfeNgA60l5awdt/PkG2zhP1zf5Yp6Tw3ewVfL6r+b3cmRizoUH0MBg5vzmVUqVt9auGo0+uYMU/UtHoPOgT60r9gWQ2zXyfVTtqTSEGLVvu+5Qt3xbT4OJJgPV5kva2TZ4saA+NlObmkJ9/Hk2FJQOjQvz6dMHkScXMfz/Ezq/ns+GvXgAc/fKMeZ6PN3e+OYaJHgBFrN5szyv7H+LdCUC4B6EAKMQ8PIsVK2bxp5s6mOvkG86MCQpQyZ6D5UA9B3abvsdOnd4HN/N+Bj6/iOwj81i3ag5f7r6Xl4YADYXsO27+WPfvy4srZvHcFHvT7aFDWLZiFiuWDqZf87GKk/jH4lKaVKEsTZjPmtUPsG9FOHZUsXRJMh1857xcdSWltjb0HxFH+d7D5F84xoHgkcR6O0L5tU6eQGXVXNVRTP+3tsbqslejCitra6ytFdod+CjQcM7WD2+31nd7+fhDlobmlBj3voyM6YW3Uzec/Ady3x1jyT90wvK5H4oV1ioF9n0Hi1byWGx3gvrGMTnKXG5Ax+7338Cw6BV+PzwEV2dP+s58gScGrWLNjioLYgAaqNMP4t4F/nz08fft9H85361cifMjL/L74UG4uQUR+9RfecCwgk+2NUdnsvb9TUQ8/goP3+iPi2soE575PZNa7aez7emc6NceYt4CP4yGAG75fD5T4gBqqLYwEbsiv37MWjaHqRO7mW4PGcrcZXOY/6+hBF8MUug131QRmhLX7mQ5KvMrQKWApwPdml9gLg44AFBBeaFpPz2eeYI39z/M4x/ezWNb5zLlBlCa8jmbaMnlez6MWBxHpKspyTzxgwOTtj3K7NFAmCdeACUn+fbtEoyq7tyx/REe/Wg+f1kSgRWV7F+eZKoYdibGrMKmO4Nigb2nOVVi1Xr4+fwxvv+sGqPBiylfLeTxLxbyyGNuKKoqfnw7kXKApOPsPmDAaPBm8oZHePyr33P37DbvRAvaA25Mey+dIm0yr4/pZkHfCfHr0wXnPFnRI8QZgDC1L1ACGZXkAeFtIof8dTp/Hu6LsjmeBRYdw4XJMwJhi4aEH3OonWvPvh1GsO7OtAnN8ygMaBL289qbSXx/sJRsbRNN5hShtq6Rzs4wIknDniaAHO73e5H7Lz6gQKKWTMCzM/upqqTY2QOnGwZy07F17N2vQjtqIaFO53Avq7zmydM1YTTShELbL9WKooDBeGl+WGUKG5a9w8c/HCPjQiFVFSUQHGXRpOBWPO7g3qmmXu15x7948eIDuSQfLyJ5zU2ELLmUCdaXNtH35mLAuZMxJnq9gb6/m8+APh/w1WtxWLdKLs+TdkpH1KzelxJL61706dvAnrM5QF8wZpB2XEX0c72vcDKdb09nqKxNw6ympJiLz43xV3h9u17f4Xgo0Nx2A6X7Evjm7ZMkHy2hsqTJlHABDXU/v3oS8MxMZgz1Q/nq71yst56+QKYeFFU2q8OeZ3Xz/SoF4ykthYBzZ2LMdxmrHYicHsLahByO7+vT6i+K/kyeqTLrEET3CBWgokdMAFCB8UgBGsA+o4hylQKOwfRUqwBb7JwUaDnz0oL2AGDthFen/iAJ8evWBZOnSwxN5lkLemO7E7Gj1N7tVzw6IWhyBLHkkrA9h8STtmwtBdWUvtxsLlI0ndrN1PEJJDYp+A0KYfZkezQ70ki4YPkRTW135uYHQwhuubmTH27tb3KZuqpKGlyccHQYwqhhi3j7XVdi/9IfnL/Ds7jw15k8+fjRU3eYonKgxZz94qICCB2Gj+kW6xfF8VDhfD56YxUDgt1Qtj5G0JtXcVw3T9zbLWYYMRphxF+3sPp3Pq0esXH0sCDGHGk0QtBs5t3yB/79xQUea5VPGzEazIliG5fuU6GyBmM7MZa1+bfJ1ccF0EJJHbUGTHX4yjrqAFQeeAaCPmknb03dSaFeoVtUd/rfZE/5rhRytFc3CTwwzKfdvy1GwGhwoffdobi3DHD0w9GCGADqmnCd3I/QP+SQnnCBvu0We1rswNj6LkNzxqtSrjhE0en2mKONxsu/8Ajxv6YLJk9Gqqp0gBWnEk1DaQzy4UrfzX+WkAhmjtxGwr4sPl1pQwYKE6f3ofnjKe/HcyQ2KRAaw1eHpjCUIv45Jo2EC9DU1PobsbOLPVAD1TpqaVOTigxglPVxvm2C/vdPY/FIW8BItbYGlY8TnS2OV1dXgIsTjngzfIwfD/7Jh4djbKHcBY+6dKrMl9upVKpOlhE68QdSUaHCgOHKBYCORQxjvM8/2LWvhrumNv+ZLmXv9v1ETXjTPMx6it0bS5j95d+4JcY0R6bB2f5nHvCnBBMxwIPXUrJx8o40D//8nJiW3Jn2wN38/um1pI9o+cx3J6yfio3p5zAywPR513SO9DMORC0MMYUowXRXG9iUkQXNr/AmfZuKm6XtuRqmahR6A00NRtBXUJzdwWvJ2R4HoEHfQH0NtPMpjIOLHVAFVQ3oAEsXDHGK6Y6f4Sz5DVmkn9DT/wYVFw5l06BSsIqLpJ87lK3NQGtUIHAIC/dOow9avr0phRwtGH6icmWxiEB6WB0lXa8QdPet/G6EHWCk3vxetu1sTDOjEYIiiRn2Hdk78rjgdekhq3Bf/IG8ulyyUg1EqQ1kJeYBoMT4EQg4BLrjYDBSW1GAJhciAiooudDm+bKkPdRz4KVYJr1jT/zOnTzRvwt+/IjfjC4456mJ9+e+z4zbVjD7tQrAiulzIzF93BTx+VO7+cF8JdveJeuZ/9fTaFptX8+uN9Yxf/46Xt9qvp5k70Hmz1/HE6taLsLnwaSZpmHBDz4oAPyZMfFSHcg7zAc/jJB9kgXTPuPWER/ynHkm796v08xX+pj0HN6DHhhh006mzF7D7XFLuH+NefFJnyieftIdFZW8PmkJcXM+Z/ZN79Iz8D2e3tLmyqsrqK4sNydPEP7gGhJPLmOGN+DiigeVVJlLT4GhYTSlpHNeDzQVsv2F19jY7h498Au0I/nQIQqrK8hLz6WibYhXHyIDjrL1+7OU11ZTcPo0F1rO4jYa0Dc10dRkqgwajU00NTVxcfkfm9E88txA1j7zOJ8e11BWmsPB9x7lheN38+rDA8xBwXSPbOLg9u3kVtdQkrqRP7/5LXYF2eTWdrp7zO3R02QwAkYMTU3oL/vct2XcvCcJ/OjP/GntaYpqKik4s4V//X0t5w2WxLTmOP5e5tauZPX+lhPjPZj8wP0ULY9n2UEN5eW5JLz5Mh85PMwDcc2ZRjgz7h7JviWv8HlyMVVFp1j97Gt8a3GbrxVPfCJBUek58tRyFo9byrqdHSRPvULp4w0Y0vhi2oe8M+0jtqW0jvUZ0hNngxG2buefv/uMdya/xb/XNi/KWk/yv9awYuEavt1hnnC/fz8rFq7hkzXm2XBhMUya5YCiqmDbnct45+7lvP1KIfj15I5XB+MGuPT2xsFgBM1xPrrtY94at4JNh02bn9+UQuevSdSy/+kdJJvfBBn//oIVL56i5UWz+AxgykIPFMrZPfNfvHrPp7wz9Z8802cpq7bVdD6mFXcG3hqI0lRFZUGLbzO9B3HzTAcUVRHf3rqcd+YsY/m/yjEanBn2+EDcAOWGfgwOAUWlYeOM9/jXzctYt73N82VRe8pJPniMipK97Eu6+sVzhbieumDyZM30O7vTcKacKm9PZv39Dt6/pzmpqeXkuvOcrDH9kUnbcoaVmwtp/TZv4vzu06xcmczmJPOnS1ouK1cm80Vi68GtPpP7EoORpiYgti8TL81mxSFuIt8uVRMTaCDjQAHFkcPYdfZ+3r7Pl/4DvWi5RJH9yHGsWxHNhEhI3ZrF8QpHnOqrMH322xH76lx2LRnAlDA9JzZnsCNdYdjvR3DPgM5XWKqqynF1dsIKUNx7MKB/sGmugpMLrlRQbT4131nxvBP4ObcMHsX4W55k/8g/8HC7yxA5Me2Vz7npzFMMDAxl6JzX2V/aJsQ2lpe++QvGt8cS6tuT0Y+8zu6sFmv2/PgcQTY22NiM4s2CAhaPssHGxobbVzfPPlYR8diXbJpnYOUdA/H3DGXYwiOMf/VpYi+OOIXx6KefMfTAQ0T6hTLy9zsY8O52Pph0ii0Jlv1eR+aScdhMXIou8+8MsbFh+ocFl8XYDXqWTZt+R/m7txIZ0JOR97/LOSdPbJosi2nFZij3LvDh9OnW0/89p73N9/8XwtcPxhAaOoTH9/fnvU1/Z2SLKk2fh1fy6cQc/jaqO91HP0fKpKeY1+bKRYvb87P5MGbxGML72ENROXXhI5j/cs/2Q53UzPpwDFEDHdGdziaroJ6y3NbvL9sRE1j0ziB69YGiXZlcKHfCrr7SvERHE9o9pzi6Komz6ab3qZJ1gaOrkjh+onk/zgx950HueqQH3vpikr/OpbJRhccAX/T55TQCtuOm8PjrffHzM1B2JJ/qiBE8eWI+M273x2+AN650Vg05X2VS1GD621KecJoj3xfS+no0OyJeXsATrw+iT089eVvSOXtWReiCkYyMtrMgpk2vT4oi6LIFR10Ytmw+9z3RB3+lhLRd5dje2JfJX87nrjhzvdquBzNXTWHgIEe4UEiR1yDm/CmozX4saY8fcZNHge0kbhn32x4SFr99Snl5+VVN5czKyiI6OvpatecXlMp8ZQ0rseUPe57jjZ9a/Vr8z9E3lJF14HOem/8Up8d8ztb3byVQ5laITjLoaik+cIjPHtpOqsaOsDfn89R8f2R9yWuljg33eTJPWUXWR7ficr2bI8RV6IKVJ/FbZWXnTq8xC/nok6fQr5zP37daOi4nujKVbTd8Ro/l0c+G40UDuauTyZHliK4d4wkO7vLmwQenSOIk/ud1oRl7CnY+TkT38qZXZy9BE/+THIY9wRd77yF0qKwlIyxnGzOWJ46Nwr2Pi8WT0MUVGKP4494jOIa0v+6WEP9LutCwnRBCCCHE1ZNhOyGEEEIIC0jyJIQQQghhAUmehBBCCCEsIMmTEEIIIYQFJHkSQgghhLCAJE9CCCGEEBaQ5EkIIYQQwgKSPAkhhBBCWECSJyGEEEIIC0jyJIQQQghhAUmehBBCCCEsIMmTEEIIIYQFJHkSQgghhLCAJE9CCCGEEBaQ5EkIIYQQwgKSPAkhhBBCWECSJ/H/7daxAAAAAMAgf+sx7C+KAIBBngAABnkCABjkCQBgkCcAgEGeAAAGeQIAGOQJAGCQJwCAQZ4AAAZ5AgAY5AkAYJAnAIBBngAABnkCABjkCQBgkCcAgCHJHTwWGaa+OgAAAABJRU5ErkJggg==;" vertex="1" parent="1">
          <mxGeometry x="-180" y="-170" width="411" height="306.68" as="geometry" />
        </mxCell>
        <mxCell id="iUx2Ds71KsNqZJShA2Rj-11" style="edgeStyle=orthogonalEdgeStyle;rounded=0;orthogonalLoop=1;jettySize=auto;html=1;exitX=0.5;exitY=1;exitDx=0;exitDy=0;entryX=0.5;entryY=0;entryDx=0;entryDy=0;" edge="1" parent="1" source="iUx2Ds71KsNqZJShA2Rj-8" target="iUx2Ds71KsNqZJShA2Rj-10">
          <mxGeometry relative="1" as="geometry" />
        </mxCell>
        <mxCell id="iUx2Ds71KsNqZJShA2Rj-8" value="是否命中缓存" style="rhombus;whiteSpace=wrap;html=1;" vertex="1" parent="1">
          <mxGeometry x="-450" y="150" width="170" height="130" as="geometry" />
        </mxCell>
        <mxCell id="iUx2Ds71KsNqZJShA2Rj-13" style="edgeStyle=orthogonalEdgeStyle;rounded=0;orthogonalLoop=1;jettySize=auto;html=1;exitX=1;exitY=0.5;exitDx=0;exitDy=0;entryX=0;entryY=0.5;entryDx=0;entryDy=0;" edge="1" parent="1" source="iUx2Ds71KsNqZJShA2Rj-10" target="iUx2Ds71KsNqZJShA2Rj-12">
          <mxGeometry relative="1" as="geometry" />
        </mxCell>
        <mxCell id="iUx2Ds71KsNqZJShA2Rj-10" value="ES检索" style="rounded=0;whiteSpace=wrap;html=1;" vertex="1" parent="1">
          <mxGeometry x="-425" y="320" width="120" height="60" as="geometry" />
        </mxCell>
        <mxCell id="iUx2Ds71KsNqZJShA2Rj-12" value="相关度得分" style="shape=parallelogram;perimeter=parallelogramPerimeter;whiteSpace=wrap;html=1;fixedSize=1;" vertex="1" parent="1">
          <mxGeometry x="-260" y="320" width="120" height="60" as="geometry" />
        </mxCell>
      </root>
    </mxGraphModel>
  </diagram>
</mxfile>
